<svg width="95" height="37" viewBox="0 0 95 37" fill="none" xmlns="http://www.w3.org/2000/svg">
<g clip-path="url(#clip0_251_4558)">
<path d="M15.0898 8.13078C16.1493 7.76728 17.2795 7.57341 18.452 7.57341C23.5847 7.57341 27.8699 11.3247 28.8493 16.312L36.1246 14.7853C34.4577 6.31328 27.1776 -0.0649414 18.452 -0.0649414C16.4507 -0.0649414 14.5342 0.269479 12.7354 0.889853L15.0898 8.13078Z" fill="#FFCB05"/>
<path d="M6.50533 32.3932L11.4262 26.6693C9.2318 24.6677 7.84737 21.7451 7.84737 18.4881C7.84737 15.236 9.2318 12.3135 11.4262 10.3167L6.50533 4.58789C2.77585 7.99025 0.421387 12.9581 0.421387 18.4881C0.421387 24.023 2.77585 28.9909 6.50533 32.3932Z" fill="#00A4E0"/>
<path d="M28.8493 20.6787C27.8651 25.6611 23.5847 29.4076 18.4567 29.4076C17.2795 29.4076 16.1446 29.2137 15.0898 28.8454L12.7354 36.096C14.5342 36.7115 16.4554 37.0459 18.4567 37.0459C27.1729 37.0459 34.4482 30.6774 36.1246 22.2151L28.8493 20.6787Z" fill="#EF4123"/>
<path d="M42.4862 26.9067C42.2461 26.5092 41.9258 25.8743 41.7281 25.4042C40.5744 22.6513 40.5226 19.8014 41.4926 17.0679C42.5616 14.0678 44.6052 11.7754 47.2469 10.6025C50.5667 9.13392 54.235 9.41988 57.4182 11.3634C59.4384 12.5557 60.8699 14.3974 61.9576 17.0049C62.0942 17.3393 62.2166 17.6931 62.3391 17.9985L42.4862 26.9067ZM49.1164 15.0275C46.7572 16.0695 45.5423 18.3474 45.7966 21.0131L55.7795 16.5881C54.0608 14.5137 51.8287 13.8255 49.1164 15.0275ZM57.0227 24.653C57.018 24.653 57.018 24.6578 57.018 24.6578L56.8108 24.5124C56.2127 25.506 55.2851 26.3154 54.1126 26.8388C51.8805 27.8372 49.8133 27.5804 48.3253 26.2378L48.1887 26.4511C48.1887 26.4511 48.1887 26.4462 48.184 26.4462L45.6506 30.3478C46.2816 30.7985 46.955 31.1766 47.6613 31.4819C50.4584 32.6791 53.3215 32.6209 56.1421 31.3608C58.1811 30.4496 59.7821 29.0634 60.8746 27.3041L57.0227 24.653Z" fill="black"/>
<path d="M69.2753 4.86426V26.5483L72.5528 27.915L70.6927 32.3837L67.0763 30.8327C66.2663 30.4692 65.7107 29.9167 65.2963 29.2915C64.896 28.6566 64.5994 27.7793 64.5994 26.6064V4.86426H69.2753Z" fill="black"/>
<path d="M77.7608 21.028C77.7608 19.1814 78.5566 17.5239 79.8092 16.3995L76.447 12.5415C74.1679 14.6159 72.7317 17.645 72.7317 21.0183C72.727 24.3965 74.1632 27.4305 76.4376 29.5049L79.7951 25.6469C78.5472 24.5176 77.7608 22.8698 77.7608 21.028Z" fill="black"/>
<path d="M83.7318 27.1783C83.0725 27.1783 82.4321 27.0619 81.8388 26.8584L80.233 31.7681C81.3302 32.1461 82.5027 32.3545 83.7271 32.3545C89.0482 32.3594 93.4887 28.4723 94.5199 23.3106L89.585 22.2734C89.0246 25.0797 86.6183 27.1831 83.7318 27.1783Z" fill="black"/>
<path d="M83.7459 9.70117C82.5263 9.70117 81.3538 9.90473 80.2566 10.2779L81.8482 15.1925C82.4462 14.9889 83.082 14.8774 83.7412 14.8774C86.6325 14.8823 89.0435 16.9954 89.5897 19.8065L94.5247 18.779C93.5122 13.6076 89.0717 9.70602 83.7459 9.70117Z" fill="black"/>
</g>
<defs>
<clipPath id="clip0_251_4558">
<rect width="94" height="37" fill="white" transform="translate(0.451904)"/>
</clipPath>
</defs>
</svg>
