<svg width="104" height="43" viewBox="0 0 104 43" fill="none" xmlns="http://www.w3.org/2000/svg">
<g clip-path="url(#clip0_251_4571)">
<rect x="9.18054" y="9.78955" width="85.539" height="23.276" fill="white"/>
<path d="M43.5445 42.4225L0.992676 42.4367V42.3405C0.992676 42.2876 1.06054 41.9446 1.14349 41.5783C1.22643 41.212 1.35539 40.6293 1.43005 40.2835C1.50471 39.9377 1.63237 39.35 1.71373 38.9775C1.79509 38.6051 1.93027 37.9848 2.01413 37.599C2.09798 37.2133 2.22935 36.6038 2.30605 36.2447C2.38275 35.8856 2.5108 35.2979 2.59061 34.9387C2.67042 34.5796 2.80649 33.9593 2.89299 33.5602C2.97948 33.1612 3.11097 32.5517 3.18517 32.2059C3.25939 31.86 3.37732 31.3268 3.44724 31.0208C3.51717 30.7149 3.60632 30.3014 3.64534 30.1018C3.68437 29.9023 3.81067 29.3146 3.926 28.7959C4.04133 28.2771 4.16866 27.6894 4.20894 27.4899C4.24923 27.2904 4.37713 26.7027 4.49315 26.1839C4.60918 25.6652 4.73664 25.0775 4.7764 24.878C4.81616 24.6785 4.94433 24.0908 5.06123 23.572C5.17812 23.0533 5.30429 22.4765 5.34159 22.2902C5.3789 22.104 5.48108 21.6252 5.56866 21.2261C5.65624 20.8271 5.82196 20.0762 5.93692 19.5574C6.05189 19.0386 6.24853 18.1354 6.37391 17.5501C6.49928 16.9648 6.6491 16.2683 6.70683 16.0023C6.76457 15.7363 6.86899 15.2574 6.93886 14.9382C7.00874 14.6189 7.13562 14.0421 7.22082 13.6564C7.30603 13.2706 7.44466 12.6394 7.52889 12.2537C7.61312 11.8679 7.74293 11.2694 7.81734 10.9235C7.89175 10.5777 8.01875 10.0009 8.09956 9.64176C8.18037 9.28262 8.31937 8.65141 8.40845 8.23906C8.49753 7.82672 8.64675 7.1955 8.74006 6.83636C8.83336 6.47722 8.96528 6.0419 9.0332 5.86898C9.10112 5.69606 9.28864 5.32122 9.4499 5.03599L9.74311 4.5174L10.0097 4.18953C10.1563 4.00921 10.418 3.72426 10.5913 3.55632C10.7646 3.38837 11.0571 3.13566 11.2412 2.99473C11.4253 2.8538 11.6918 2.66361 11.8334 2.57209C11.975 2.48056 12.2531 2.32032 12.4514 2.216C12.6497 2.11168 12.9278 1.97508 13.0694 1.91243C13.2111 1.84979 13.5007 1.73546 13.7132 1.65836C13.9256 1.58127 14.3312 1.45205 14.6144 1.3712C14.8977 1.29036 15.4294 1.1685 15.796 1.1004C16.1626 1.03231 16.7419 0.941364 17.0835 0.898299L17.7044 0.819999L60.282 0.804774L102.86 0.789551V0.885678C102.86 0.938549 102.791 1.28152 102.708 1.64784C102.624 2.01415 102.485 2.64035 102.398 3.0394C102.311 3.43844 102.184 4.01524 102.116 4.32118C102.047 4.62711 101.918 5.21479 101.829 5.62714C101.739 6.03948 101.601 6.6707 101.522 7.02984C101.443 7.38898 101.315 7.97666 101.238 8.3358C101.161 8.69494 101.032 9.28262 100.953 9.64176C100.873 10.0009 100.749 10.5668 100.677 10.8994C100.606 11.2319 100.477 11.8305 100.39 12.2295C100.303 12.6285 100.164 13.2598 100.081 13.6322C99.9971 14.0046 99.87 14.5814 99.798 14.914C99.7261 15.2465 99.5966 15.8451 99.5103 16.2441C99.424 16.6432 99.2851 17.2744 99.2016 17.6468C99.1182 18.0193 98.9938 18.5852 98.9253 18.9044C98.8567 19.2237 98.7277 19.8222 98.6386 20.2346C98.5495 20.6469 98.4196 21.2455 98.3499 21.5647C98.2803 21.8839 98.1559 22.4499 98.0734 22.8223C97.991 23.1947 97.8501 23.8368 97.7604 24.2492C97.6706 24.6615 97.5421 25.2492 97.4748 25.5552C97.4075 25.8611 97.2816 26.4379 97.195 26.8369C97.1083 27.236 96.9705 27.8672 96.8887 28.2396C96.8068 28.6121 96.6785 29.1998 96.6035 29.5456C96.5284 29.8914 96.398 30.49 96.3136 30.8757C96.2293 31.2615 96.0914 31.8927 96.0074 32.2784C95.9233 32.6642 95.7973 33.241 95.7274 33.5602C95.6575 33.8794 95.5297 34.4671 95.4434 34.8662C95.3571 35.2652 95.2168 35.8941 95.1315 36.2636L94.9764 36.9355L94.7916 37.4003C94.69 37.6559 94.5373 37.9956 94.4522 38.1553C94.3671 38.3149 94.1938 38.5965 94.0671 38.7811C93.9404 38.9657 93.7637 39.2022 93.6746 39.3067C93.5854 39.4111 93.317 39.6809 93.0781 39.9061L92.6438 40.3156L92.2258 40.5945C91.9959 40.748 91.7483 40.904 91.6756 40.9413C91.6028 40.9785 91.3258 41.1113 91.0601 41.2363C90.7943 41.3613 90.4189 41.5204 90.2259 41.5898C90.0328 41.6592 89.6504 41.7774 89.3761 41.8525C89.1018 41.9275 88.8079 42.0014 88.7229 42.0166C88.6379 42.0319 88.343 42.0892 88.0674 42.144C87.7918 42.1988 87.2356 42.2807 86.8314 42.3259L86.0964 42.4082L43.5445 42.4225ZM28.4053 32.085H29.5127L29.5439 32.0084C29.5611 31.9664 29.5752 31.8674 29.5752 31.7886C29.5752 31.7098 29.6117 31.4231 29.6563 31.1517C29.7009 30.8802 29.8056 30.2554 29.8889 29.7633C29.9723 29.2711 30.0971 28.531 30.1663 28.1187C30.2355 27.7064 30.3199 27.1785 30.3539 26.9458C30.3879 26.713 30.4294 26.5225 30.4462 26.5225C30.4629 26.5225 30.5345 26.6254 30.6053 26.7511L30.7339 26.9797L31.0194 27.2498L31.3049 27.52L31.6563 27.6521L32.0078 27.7843L32.4266 27.8353L32.8454 27.8862L33.3771 27.8556L33.9087 27.825L34.4843 27.6851L35.0599 27.5452L35.3689 27.4127C35.5389 27.3398 35.8401 27.181 36.0384 27.0597L36.3989 26.8392L36.7351 26.5236C36.9199 26.3501 37.1806 26.0718 37.3144 25.9053C37.4482 25.7387 37.5577 25.5903 37.5577 25.5754C37.5577 25.5606 37.6234 25.4574 37.7037 25.3462C37.7841 25.235 37.9485 24.9264 38.0691 24.6603C38.1897 24.3943 38.3782 23.9154 38.488 23.5962L38.6876 23.0158L38.7908 22.513C38.8475 22.2365 38.9205 21.7794 38.953 21.4973L39.012 20.9843L38.9779 20.549L38.9438 20.1136L38.8364 19.6783L38.7289 19.243L38.5549 18.9171L38.381 18.5911L38.045 18.2566L37.7089 17.9221L37.3114 17.7291L36.9139 17.5361L36.4762 17.4377L36.0384 17.3392L35.6007 17.3091L35.1629 17.2789L34.6753 17.3315L34.1877 17.3841L33.7896 17.4796L33.3916 17.575L33.0459 17.7253C32.8557 17.808 32.579 17.9484 32.431 18.0373C32.2829 18.1263 32.1302 18.2286 32.0916 18.2647C32.053 18.3009 31.9606 18.3678 31.8862 18.4135L31.751 18.4965L31.8456 18.0717C31.8976 17.838 31.941 17.6196 31.9421 17.5864L31.9442 17.5259H31H30.0558L29.8903 18.5054C29.7992 19.0441 29.6554 19.8766 29.5708 20.3555C29.4861 20.8343 29.3584 21.5526 29.2871 21.9517C29.2157 22.3507 29.0884 23.0581 29.0041 23.5237C28.9199 23.9892 28.7807 24.7292 28.6948 25.1682C28.6088 25.6071 28.4829 26.2492 28.415 26.5951C28.3471 26.9409 28.2192 27.5939 28.1309 28.0462C28.0426 28.4984 27.9006 29.2167 27.8154 29.6423C27.7303 30.068 27.5917 30.7427 27.5075 31.1418C27.4232 31.5408 27.3416 31.9163 27.3262 31.9761L27.298 32.085H28.4053ZM33.1724 26.4926L32.7424 26.5169L32.4614 26.4703L32.1803 26.4237L31.8949 26.3013L31.6094 26.1789L31.41 26L31.2106 25.8212L31.0955 25.5793C31.0322 25.4463 30.9508 25.2204 30.9148 25.0772L30.8492 24.8169L30.8754 24.4L30.9017 23.9832L31.0344 23.3302C31.1074 22.971 31.2384 22.2963 31.3256 21.8307C31.4128 21.3652 31.5448 20.6831 31.619 20.3149L31.7538 19.6455L32.049 19.4147C32.2114 19.2878 32.4686 19.1177 32.6206 19.0367L32.8969 18.8895L33.2574 18.7847L33.6179 18.6799L34.0814 18.6543L34.5449 18.6288L34.9223 18.7043L35.2997 18.7799L35.5661 18.8951L35.8324 19.0103L36.0558 19.2212L36.2791 19.4321L36.3996 19.6554C36.4659 19.7782 36.5589 20.0186 36.6064 20.1896L36.6928 20.5006L36.6663 21.4196L36.6399 22.3386L36.5076 22.8818C36.4349 23.1806 36.2964 23.6377 36.1999 23.8976L36.0244 24.3701L35.8095 24.7526C35.6914 24.963 35.5091 25.2473 35.4045 25.3844C35.3 25.5215 35.1333 25.6991 35.0342 25.7791C34.935 25.859 34.769 25.984 34.6652 26.0568L34.4765 26.1891L34.0394 26.3287L33.6024 26.4683L33.1724 26.4926ZM43.8664 27.8223L44.4329 27.8284L44.9994 27.7799C45.311 27.7532 45.8208 27.6976 46.1324 27.6564C46.444 27.6152 46.9822 27.5229 47.3285 27.4513L47.9581 27.3212L47.9895 27.1033C48.0067 26.9834 48.0774 26.6265 48.1466 26.3102L48.2724 25.735L48.2446 25.709L48.2169 25.6829L48.0244 25.7702C47.9185 25.8182 47.5888 25.9328 47.2917 26.0248L46.7514 26.192L46.1844 26.2951L45.6174 26.3983L44.7162 26.3999L43.8149 26.4016L43.5059 26.3089C43.336 26.2579 43.086 26.1647 42.9505 26.1016L42.704 25.9871L42.5005 25.8145L42.2971 25.6418L42.1384 25.3813L41.9797 25.1208L41.8802 24.7939L41.7807 24.4671L41.78 23.8624L41.7793 23.2576L41.8676 22.7181L41.9559 22.1786L42.7309 22.1446L43.5059 22.1106L46.3707 22.1278L49.2354 22.1451L49.3219 21.8005C49.3695 21.611 49.4422 21.2192 49.4836 20.9299L49.5587 20.4038L49.5603 19.9613L49.5619 19.5189L49.4803 19.1885L49.3987 18.8582L49.2638 18.6394C49.1897 18.5191 49.059 18.3448 48.9734 18.252C48.8878 18.1592 48.735 18.0284 48.6339 17.9613C48.5327 17.8942 48.334 17.7814 48.1924 17.7107L47.9349 17.5821L47.485 17.4803L47.0351 17.3784L46.4808 17.3287L45.9264 17.2789L45.4114 17.3104L44.8964 17.3419L44.2784 17.4533L43.6604 17.5648L43.2742 17.7098C43.0617 17.7896 42.7373 17.9351 42.5532 18.0331C42.3691 18.1311 42.1141 18.2907 41.9867 18.3877C41.8592 18.4847 41.6385 18.6733 41.4963 18.8068C41.354 18.9403 41.1435 19.1801 41.0286 19.3397C40.9137 19.4993 40.7375 19.7823 40.637 19.9685C40.5366 20.1547 40.4058 20.4159 40.3463 20.5489C40.2867 20.682 40.1786 20.954 40.1059 21.1536C40.0333 21.3531 39.9191 21.734 39.8521 22C39.7852 22.266 39.6935 22.704 39.6483 22.9732L39.5662 23.4626L39.5669 24.1824L39.5677 24.9022L39.646 25.2166C39.689 25.3895 39.7713 25.6507 39.8289 25.797C39.8864 25.9433 39.9929 26.161 40.0654 26.2807C40.1379 26.4004 40.2928 26.5931 40.4096 26.709C40.5264 26.8249 40.7378 27.0007 40.8794 27.0997C41.021 27.1987 41.2732 27.338 41.4397 27.4092L41.7425 27.5387L42.1647 27.6345C42.3968 27.6872 42.7473 27.7497 42.9434 27.7733C43.1395 27.7969 43.5549 27.819 43.8664 27.8223ZM44.8365 21.0085C43.4107 21.0085 42.2442 20.9989 42.2442 20.9872C42.2442 20.9755 42.305 20.8068 42.3794 20.6123C42.4537 20.4179 42.5843 20.1284 42.6695 19.9691L42.8245 19.6795L43.1652 19.3612L43.5059 19.043L43.8407 18.8927C44.0248 18.81 44.2681 18.72 44.3814 18.6926C44.4947 18.6653 44.8192 18.629 45.1024 18.612L45.6174 18.5811L46.0129 18.6288L46.4084 18.6765L46.6958 18.8001L46.9832 18.9237L47.1409 19.0833C47.2276 19.1712 47.3309 19.3005 47.3705 19.3707L47.4425 19.4984L47.49 19.7818L47.5375 20.0653L47.4832 20.5369L47.4288 21.0085H44.8365ZM60.2437 27.8226L60.8106 27.8285L61.454 27.7569C61.8079 27.7175 62.279 27.6522 62.5008 27.6118C62.7227 27.5714 63.0819 27.4912 63.2991 27.4336C63.5162 27.376 63.7127 27.3137 63.7357 27.2952C63.7586 27.2767 63.82 27.0572 63.872 26.8074C63.9241 26.5576 63.9896 26.2226 64.0177 26.063C64.0458 25.9034 64.0603 25.7643 64.05 25.7538C64.0396 25.7434 64.0016 25.7569 63.9655 25.7838C63.9295 25.8107 63.6768 25.9106 63.404 26.0057L62.9081 26.1787L62.2019 26.3072L61.4957 26.4357L60.8953 26.4165L60.2949 26.3972L59.9539 26.2861L59.6129 26.1751L59.3493 25.9586L59.0858 25.742L58.911 25.443L58.7362 25.144L58.6529 24.744L58.5697 24.344L58.5702 23.825L58.5707 23.306L58.6719 22.6772L58.773 22.0484L58.8801 21.7098C58.939 21.5236 59.0056 21.3059 59.0281 21.2261C59.0507 21.1463 59.1451 20.9178 59.238 20.7183C59.3309 20.5187 59.4966 20.2104 59.6063 20.033L59.8056 19.7105L60.0504 19.4722L60.2953 19.234L60.5546 19.0829L60.8138 18.9319L61.1468 18.8356C61.3299 18.7826 61.6536 18.7138 61.866 18.6827L62.2523 18.6262L62.8188 18.6529L63.3853 18.6796L64.0548 18.8054L64.7243 18.9313L64.9966 19.0267C65.1464 19.0792 65.2754 19.1221 65.2834 19.1221C65.2914 19.1221 65.3273 18.9425 65.3632 18.723C65.3992 18.5036 65.4631 18.1425 65.5053 17.9206C65.5475 17.6988 65.5718 17.5077 65.5594 17.496C65.547 17.4844 65.3457 17.4544 65.1122 17.4293C64.8787 17.4043 64.2439 17.3599 63.7017 17.3306L62.7158 17.2774L62.0205 17.3275L61.3253 17.3776L60.8103 17.4793L60.2953 17.5809L59.9636 17.7055C59.7812 17.774 59.514 17.8977 59.3699 17.9803C59.2257 18.0629 59.0422 18.174 58.9621 18.2273C58.882 18.2805 58.639 18.488 58.422 18.6886L58.0275 19.0531L57.8074 19.3561C57.6862 19.5227 57.4768 19.8702 57.3418 20.1282L57.0964 20.5973L56.9084 21.1052C56.805 21.3845 56.6606 21.8416 56.5875 22.121L56.4546 22.6288L56.4064 23.0883L56.3582 23.5478L56.3587 24.1525L56.3592 24.7571L56.4079 25.1088L56.4565 25.4605L56.6107 25.8223L56.765 26.1841L56.9432 26.4457L57.1213 26.7073L57.4046 26.9692L57.6879 27.231L57.9876 27.3798L58.2873 27.5285L58.681 27.6313C58.8976 27.6877 59.2104 27.7526 59.3763 27.7753C59.5421 27.7981 59.9329 27.8193 60.2446 27.8226H60.2437ZM68.7152 27.8047L69.4104 27.786L69.8482 27.6808L70.2859 27.5756L70.5692 27.4498C70.725 27.3806 70.9799 27.2441 71.1357 27.1463C71.2915 27.0486 71.5326 26.8628 71.6715 26.7335C71.8105 26.6042 72.0165 26.3835 72.1294 26.2431C72.2422 26.1028 72.3414 25.9943 72.3497 26.0021C72.358 26.0099 72.3321 26.2336 72.292 26.4992C72.2519 26.7647 72.2187 27.1181 72.2182 27.2843L72.2172 27.5866H73.1624H74.1076L74.1365 26.8974L74.1654 26.2081L74.3002 25.3133C74.3744 24.8212 74.4942 24.092 74.5665 23.6929C74.6387 23.2939 74.7643 22.6192 74.8456 22.1935C74.9268 21.7679 75.0555 21.104 75.1316 20.7183L75.2699 20.0169L75.2745 19.4111L75.2792 18.8053L75.1333 18.5253L74.9875 18.2453L74.7897 18.067L74.5919 17.8887L74.2672 17.7341L73.9425 17.5796L73.4585 17.4785L72.9746 17.3774L72.3083 17.3298L71.642 17.2822L70.7838 17.332C70.3117 17.3595 69.6474 17.4136 69.3075 17.4524L68.6895 17.5229L68.2683 17.5244L67.8471 17.5259L67.7858 17.804C67.7521 17.957 67.6585 18.3204 67.5777 18.6116C67.4969 18.9028 67.4383 19.1481 67.4475 19.1567C67.4566 19.1653 67.6819 19.1173 67.9481 19.05C68.2142 18.9827 68.7796 18.8721 69.2045 18.8041L69.977 18.6806L70.6722 18.6537L71.3675 18.6268L71.8153 18.7005L72.2632 18.7742L72.5621 18.9128L72.861 19.0513L73.0284 19.2856L73.1957 19.5199L73.1934 19.8893L73.191 20.2587L73.1023 20.6641L73.0135 21.0695L71.1605 21.0757L69.3075 21.082L68.701 21.2382C68.3674 21.3241 67.9981 21.4381 67.8802 21.4916C67.7623 21.5451 67.6444 21.5889 67.6182 21.5889C67.5919 21.5889 67.3935 21.6922 67.1772 21.8185L66.784 22.0482L66.4743 22.3385C66.3039 22.4982 66.0863 22.7376 65.9906 22.8707C65.895 23.0037 65.7396 23.2815 65.6453 23.4882L65.4739 23.8638L65.3952 24.2862L65.3165 24.7087V25.1518V25.595L65.3917 25.964L65.4669 26.3329L65.6063 26.5736C65.683 26.7059 65.8238 26.8998 65.9191 27.0044L66.0925 27.1946L66.4005 27.3704L66.7085 27.5461L67.0611 27.6398C67.255 27.6914 67.5502 27.7538 67.717 27.7785L68.0203 27.8234L68.7155 27.8047L68.7152 27.8047ZM69.3589 26.4522L68.9469 26.4724L68.674 26.4071C68.524 26.3712 68.2962 26.2912 68.168 26.2292L67.9348 26.1166L67.8075 25.9745C67.7375 25.8964 67.6306 25.7428 67.5699 25.6333L67.4595 25.4342L67.4379 24.9693L67.4163 24.5043L67.5036 24.2222C67.5516 24.0671 67.6642 23.798 67.7539 23.6241L67.9169 23.308L68.2291 23.0168L68.5413 22.7256L68.8729 22.5756L69.2044 22.4257L69.6164 22.3338L70.0284 22.2419H71.3159H72.6034L72.6849 22.2735L72.7663 22.3051L72.6978 22.6846C72.6601 22.8934 72.5701 23.2709 72.4979 23.5237C72.4257 23.7764 72.2983 24.1479 72.2147 24.3492C72.1311 24.5506 72.0627 24.7286 72.0627 24.7448C72.0627 24.761 71.978 24.9078 71.8746 25.0708L71.6865 25.3674L71.3777 25.6547C71.2078 25.8128 71.0502 25.9421 71.0273 25.9421C71.0044 25.9421 70.9003 25.9965 70.7959 26.0631L70.6061 26.184L70.1885 26.308L69.7709 26.432L69.3589 26.4522ZM86.1222 27.822L86.6114 27.8278L87.0749 27.7572C87.3298 27.7183 87.6543 27.6557 87.7959 27.618C87.9375 27.5804 88.1925 27.4827 88.3624 27.4009L88.6714 27.2522L88.9372 27.0325L89.2031 26.8127L89.483 26.4621C89.637 26.2692 89.7764 26.0787 89.7929 26.0388L89.8228 25.9663L89.7968 26.2081C89.7825 26.3411 89.7504 26.5588 89.7255 26.6918C89.7006 26.8248 89.6649 27.0806 89.6462 27.2602L89.6122 27.5866H90.6224H91.6327V27.2602V26.9337L91.7866 25.7003C91.8712 25.0219 91.9964 24.1186 92.0648 23.6929C92.1331 23.2673 92.2386 22.6579 92.2992 22.3386C92.3598 22.0194 92.4671 21.4426 92.5377 21.0568C92.6082 20.6711 92.7357 19.9963 92.8209 19.5574C92.9061 19.1185 93.0425 18.4219 93.124 18.0096C93.2054 17.5972 93.3321 16.9552 93.4054 16.5827C93.4787 16.2103 93.61 15.5573 93.6972 15.1316C93.7844 14.706 93.9118 14.1074 93.9803 13.8015C94.0488 13.4956 94.1047 13.2289 94.1046 13.209V13.1727H93.0024H91.9002L91.8676 13.475C91.8497 13.6413 91.7654 14.1909 91.6801 14.6963C91.5949 15.2018 91.456 16.0071 91.3714 16.486C91.2868 16.9648 91.2053 17.4292 91.1902 17.5179L91.1628 17.6791L91.0758 17.6444C91.028 17.6252 90.7687 17.5577 90.4996 17.4942L90.0103 17.3789L89.3408 17.3299L88.6713 17.2809L88.1048 17.3305L87.5383 17.3801L87.0233 17.5023L86.5083 17.6246L86.0191 17.8487L85.5298 18.0728L85.1693 18.3235L84.8088 18.5742L84.4975 18.8877C84.3263 19.0601 84.0789 19.3453 83.9478 19.5215L83.7094 19.8417L83.4295 20.3888C83.2755 20.6897 83.0881 21.0883 83.0131 21.2745C82.9381 21.4607 82.8057 21.8735 82.719 22.1918L82.5614 22.7706L82.4837 23.522L82.406 24.2734L82.4644 24.878L82.5227 25.4826L82.5916 25.7003C82.6296 25.82 82.7095 26.0333 82.7693 26.1742L82.8781 26.4306L83.0763 26.6826L83.2746 26.9347L83.501 27.1088L83.7273 27.2829L84.0363 27.427C84.2063 27.5063 84.4914 27.6087 84.6699 27.6547C84.8484 27.7006 85.1381 27.7557 85.3136 27.7772C85.4892 27.7987 85.853 27.8188 86.1221 27.822H86.1222ZM87.0003 26.4497L86.6114 26.4691L86.349 26.4247C86.2046 26.4003 85.9736 26.3349 85.8356 26.2794L85.5848 26.1784L85.3737 26.0159L85.1626 25.8535L85.0058 25.5713L84.8489 25.2891L84.7774 24.9747L84.7059 24.6603L84.712 24.0315L84.718 23.4027L84.8011 22.8465L84.8841 22.2902L85.0131 21.9033C85.0841 21.6905 85.1425 21.4897 85.1429 21.4571C85.1434 21.4245 85.2134 21.2504 85.2986 21.0701C85.3838 20.8899 85.5262 20.6118 85.615 20.4522C85.7038 20.2926 85.8697 20.0438 85.9838 19.8993C86.0979 19.7548 86.301 19.5371 86.4353 19.4156C86.5696 19.2941 86.7832 19.1347 86.91 19.0614L87.1405 18.9281L87.5455 18.7965L87.9504 18.6649L88.8002 18.6644H89.6499L90.1392 18.7919C90.4083 18.862 90.694 18.9434 90.7741 18.9726L90.9197 19.0258L90.8913 19.1586C90.8756 19.2316 90.8144 19.5526 90.7553 19.8718C90.6961 20.191 90.5795 20.8005 90.4962 21.2261C90.4129 21.6518 90.2849 22.2939 90.2117 22.653C90.1386 23.0122 90.0326 23.4692 89.9763 23.6688C89.9199 23.8683 89.8404 24.1446 89.7996 24.2829C89.7588 24.4211 89.6616 24.6606 89.5836 24.8149C89.5057 24.9693 89.3692 25.1936 89.2804 25.3133C89.1917 25.433 89.0415 25.5989 88.9467 25.6818C88.852 25.7648 88.647 25.9122 88.4912 26.0095L88.2079 26.1863L87.7985 26.3083L87.3891 26.4303L87.0003 26.4497V26.4497ZM11.205 27.5866H12.4563L12.5461 27.0667C12.5955 26.7807 12.6919 26.2311 12.7604 25.8454C12.8289 25.4596 12.9564 24.7413 13.0437 24.2492C13.131 23.757 13.2619 23.0279 13.3345 22.6288C13.4072 22.2298 13.5226 21.6108 13.5911 21.2532C13.6595 20.8957 13.7285 20.591 13.7444 20.5761L13.7732 20.549H17.1379H20.5026L20.5399 20.584L20.5773 20.6191L20.5189 20.8984C20.4869 21.0521 20.3919 21.526 20.308 21.9517C20.2241 22.3773 20.083 23.0956 19.9945 23.5478C19.906 24.0001 19.778 24.6422 19.7101 24.9747C19.6422 25.3073 19.5047 26.0038 19.4047 26.5225C19.3046 27.0413 19.2229 27.4929 19.2232 27.5262L19.2237 27.5866H20.4802H21.7366L21.7922 27.2843C21.8228 27.1181 21.872 26.8188 21.9016 26.6193C21.9311 26.4197 22.0024 25.9953 22.0599 25.6761C22.1174 25.3568 22.2323 24.7256 22.3153 24.2734C22.3982 23.8211 22.5371 23.0484 22.6238 22.5563C22.7106 22.0641 22.8393 21.3458 22.9098 20.9601C22.9803 20.5744 23.106 19.9214 23.1891 19.509C23.2722 19.0967 23.4106 18.4002 23.4966 17.9612C23.5827 17.5223 23.7116 16.8584 23.7831 16.486C23.8547 16.1135 23.9851 15.4388 24.0729 14.9865C24.1608 14.5343 24.2717 14.0065 24.3195 13.8136L24.4063 13.4629H23.1341H21.8619L21.8273 13.6927C21.8083 13.819 21.7468 14.1727 21.6907 14.4787C21.6346 14.7846 21.5326 15.3287 21.464 15.6879C21.3954 16.047 21.27 16.7327 21.1854 17.2115C21.1008 17.6904 20.9929 18.3242 20.9457 18.6201L20.8599 19.1581L18.9924 19.1936L17.1249 19.2291L15.5607 19.1943C14.7004 19.1751 13.9917 19.1556 13.9859 19.1509C13.98 19.1463 14.0093 18.9583 14.051 18.7332C14.0926 18.5082 14.1714 18.1172 14.226 17.8645C14.2807 17.6118 14.3843 17.1111 14.4563 16.752C14.5282 16.3929 14.6097 15.9467 14.6374 15.7604C14.6651 15.5742 14.723 15.2641 14.7663 15.0712C14.8094 14.8783 14.8914 14.472 14.9484 14.1684C15.0054 13.8647 15.0662 13.5817 15.0834 13.5396L15.1147 13.4629H13.8528H12.5909L12.5101 13.8861C12.4656 14.1189 12.4064 14.4508 12.3784 14.6238C12.3504 14.7967 12.2564 15.3517 12.1695 15.8572C12.0826 16.3626 11.9543 17.1136 11.8845 17.5259C11.8146 17.9382 11.6873 18.6892 11.6016 19.1946C11.516 19.7001 11.3746 20.4837 11.2876 20.9359C11.2005 21.3882 11.0744 22.0303 11.0074 22.3628C10.9404 22.6953 10.8127 23.3266 10.7236 23.7655C10.6345 24.2044 10.5046 24.8248 10.4348 25.144C10.3651 25.4632 10.288 25.8333 10.2635 25.9663C10.239 26.0993 10.1593 26.4829 10.0863 26.8188C10.0134 27.1547 9.95372 27.4649 9.95372 27.5081V27.5866H11.205H11.205ZM25.0574 27.5866H26.1652L26.1964 27.5101C26.2136 27.4681 26.2277 27.3577 26.2277 27.2648C26.2277 27.172 26.2973 26.6895 26.3825 26.1926C26.4676 25.6957 26.6083 24.8864 26.6951 24.3943C26.7819 23.9021 26.91 23.1839 26.9799 22.7981C27.0498 22.4124 27.174 21.7703 27.256 21.3712C27.338 20.9722 27.4639 20.3519 27.5358 19.9927C27.6076 19.6336 27.7489 18.9503 27.8498 18.4743C27.9506 17.9984 28.0457 17.5898 28.0611 17.5665L28.089 17.524L26.9688 17.537L25.8486 17.5501L25.7553 18.1789C25.704 18.5247 25.5918 19.2104 25.506 19.7025C25.4202 20.1947 25.2904 20.9456 25.2175 21.3712C25.1447 21.7969 25.0177 22.4825 24.9353 22.8949C24.8529 23.3072 24.7267 23.9384 24.6547 24.2976C24.5828 24.6567 24.4537 25.2879 24.3679 25.7003C24.2821 26.1126 24.1669 26.6568 24.112 26.9095C24.0571 27.1622 23.9981 27.418 23.9809 27.4778L23.9497 27.5866H25.0574ZM50.9657 27.5866H52.0652L52.0983 27.1497C52.1164 26.9094 52.1787 26.4251 52.2365 26.0735C52.2944 25.7219 52.413 25.0207 52.4999 24.5152C52.5869 24.0098 52.7486 23.1684 52.8591 22.6456C52.9697 22.1228 53.0947 21.6031 53.1369 21.4908C53.1791 21.3784 53.2137 21.2567 53.2137 21.2203C53.2137 21.1838 53.2963 20.9852 53.3974 20.7789C53.4984 20.5726 53.6867 20.2568 53.8158 20.077L54.0506 19.7501L54.3648 19.4769L54.679 19.2036L55.0665 19.0299L55.4539 18.8561L56.0462 18.859L56.6384 18.8619L56.9296 18.9436C57.0897 18.9885 57.2346 19.0253 57.2515 19.0253C57.2684 19.0253 57.2822 18.9739 57.2822 18.911C57.2822 18.8482 57.3401 18.5296 57.4109 18.203C57.4817 17.8765 57.5397 17.5955 57.5397 17.5787C57.5397 17.5619 57.3717 17.5001 57.1663 17.4414C56.9609 17.3828 56.677 17.3214 56.5354 17.3049L56.2779 17.2751L55.9432 17.3307C55.7591 17.3613 55.4853 17.4288 55.3348 17.4807C55.1843 17.5327 54.9359 17.6505 54.7826 17.7425C54.6294 17.8346 54.3911 18.0139 54.2531 18.1411C54.115 18.2683 53.8828 18.5247 53.737 18.7109C53.5912 18.8971 53.4388 19.093 53.3982 19.1462L53.3245 19.243L53.3693 19.0495C53.3939 18.9431 53.4625 18.5948 53.5217 18.2756C53.5809 17.9564 53.6417 17.6571 53.6567 17.6105L53.6841 17.5259H52.7021H51.7202V17.6425C51.7202 17.7066 51.6622 18.0929 51.5914 18.501C51.5205 18.9091 51.4037 19.5912 51.3318 20.0169C51.2599 20.4425 51.1322 21.1826 51.0481 21.6614C50.964 22.1403 50.8363 22.8259 50.7643 23.185C50.6924 23.5442 50.5646 24.1754 50.4803 24.5877C50.3961 25.0001 50.2563 25.6748 50.1696 26.0872C50.0829 26.4995 49.9791 26.9865 49.9391 27.1693C49.899 27.3522 49.8662 27.5208 49.8662 27.5442V27.5866H50.9657V27.5866ZM77.0669 27.5866H78.1912V27.2635V26.9404L78.3207 26.1389C78.392 25.6981 78.5095 25.0001 78.582 24.5878C78.6544 24.1754 78.7447 23.653 78.7826 23.4269C78.8205 23.2008 78.9209 22.7111 79.0058 22.3386C79.0907 21.9662 79.1967 21.5635 79.2414 21.4438C79.2861 21.3241 79.323 21.1985 79.3234 21.1647C79.3239 21.1309 79.4197 20.9135 79.5364 20.6817L79.7486 20.2602L80.0286 19.9108L80.3085 19.5615L80.615 19.3451C80.7835 19.2261 81.0545 19.0683 81.2171 18.9942L81.5129 18.8597L82.1567 18.8639L82.8004 18.868L83.0538 18.9445L83.3073 19.0209L83.35 18.9961L83.3927 18.9713L83.3948 18.817C83.396 18.7321 83.4511 18.4162 83.5173 18.115L83.6377 17.5675L83.5023 17.5177C83.4279 17.4903 83.2511 17.4336 83.1094 17.3917L82.8519 17.3156L82.3884 17.3167L81.9249 17.3178L81.5472 17.4426L81.1695 17.5674L80.8858 17.7281L80.6022 17.8887L80.2335 18.2515L79.8648 18.6142L79.6666 18.8956C79.5577 19.0504 79.4617 19.1701 79.4535 19.1617C79.4452 19.1532 79.5044 18.8307 79.5851 18.4449C79.6657 18.0592 79.7327 17.6946 79.734 17.6347L79.7362 17.5259H78.7834H77.8307V17.5567C77.8307 17.5737 77.7832 17.8839 77.7251 18.246C77.6671 18.6081 77.5505 19.3071 77.4661 19.7993C77.3817 20.2914 77.2432 21.0859 77.1583 21.5647C77.0734 22.0436 76.9455 22.7292 76.874 23.0884C76.8025 23.4475 76.6755 24.0787 76.5918 24.4911C76.5081 24.9034 76.3705 25.5673 76.2861 25.9663C76.2017 26.3653 76.0899 26.8932 76.0377 27.1393L75.9427 27.5867H77.0669L77.0669 27.5866ZM27.2356 15.7836L27.5483 15.7846L27.7969 15.7051L28.0454 15.6255L28.2654 15.416L28.4854 15.2064L28.6013 14.9272L28.7171 14.648L28.7213 14.2368L28.7254 13.8257L28.6224 13.6651L28.5194 13.5046L28.3401 13.4003L28.1608 13.296H27.7736L27.3864 13.296L27.1228 13.4069L26.8592 13.5177L26.7062 13.6717L26.5532 13.8257L26.4331 14.0917L26.3129 14.3577L26.2902 14.7721L26.2675 15.1865L26.3793 15.3925L26.4912 15.5984L26.7071 15.6905L26.9229 15.7825L27.2356 15.7836V15.7836Z" fill="#B3131B"/>
</g>
<defs>
<clipPath id="clip0_251_4571">
<rect width="103" height="43" fill="white" transform="translate(0.451904)"/>
</clipPath>
</defs>
</svg>
