<svg width="257" height="47" viewBox="0 0 257 47" fill="none" xmlns="http://www.w3.org/2000/svg">
<g clip-path="url(#clip0_251_4590)">
<path d="M90.1902 4.3335H101.407V6.78683H97.2586V17.6735H94.1854V6.94016H90.1902V4.3335Z" fill="black"/>
<path d="M111.088 17.8268L108.937 13.9935H108.63H105.864V17.8268H102.79V4.48682H108.63C110.473 4.48682 111.703 4.79348 112.625 5.71348C113.547 6.48015 114.161 7.70682 114.161 9.08682C114.161 10.1601 114.008 11.0802 113.547 11.6935C113.086 12.4602 112.471 13.0735 111.703 13.3801L114.469 17.8268H111.088ZM106.017 11.3868H108.783C109.552 11.3868 110.32 11.2335 110.781 10.7735C111.242 10.4668 111.395 9.85348 111.395 8.93348C111.395 8.16682 111.242 7.55348 110.781 7.24682C110.32 6.94015 109.552 6.78682 108.63 6.78682H105.864V11.3868H106.017Z" fill="black"/>
<path d="M126.608 17.8268L125.532 15.3735H119.386L118.31 17.8268H115.237L121.076 4.48682H124.149L129.835 17.8268H126.608ZM120.308 12.7668H124.457L122.305 7.55348L120.308 12.7668Z" fill="black"/>
<path d="M140.591 4.3335H143.357V17.6735H140.591L134.137 9.24016V17.6735H131.371V4.48683H134.137L140.745 13.0735L140.591 4.3335Z" fill="black"/>
<path d="M152.884 7.09352C152.269 6.78686 151.501 6.78686 151.04 6.78686C150.425 6.78686 150.118 6.94019 149.811 7.09352C149.504 7.24686 149.35 7.55352 149.35 7.86019C149.35 8.32019 149.504 8.62686 149.965 8.93352C150.425 9.24019 151.04 9.54686 152.116 9.70019C153.038 10.0069 153.806 10.3135 154.421 10.4669C155.035 10.7735 155.496 11.0802 155.957 11.6935C156.418 12.3069 156.572 12.9202 156.572 13.8402C156.572 14.6069 156.418 15.3735 155.957 16.1402C155.496 16.7535 154.882 17.2135 154.113 17.5202C153.345 17.8269 152.423 17.9802 151.501 17.9802C150.425 17.9802 149.35 17.8269 148.274 17.3669C147.199 17.0602 146.277 16.4469 145.662 15.8335L146.891 13.3802C147.506 13.9935 148.428 14.4535 149.196 14.9135C149.965 15.2202 150.886 15.5269 151.655 15.5269C152.269 15.5269 152.73 15.3735 153.191 15.2202C153.499 15.0669 153.806 14.6069 153.806 14.1469C153.806 13.8402 153.652 13.5335 153.499 13.3802C153.345 13.2269 152.73 12.7669 152.423 12.6135C152.116 12.4602 151.655 12.3069 150.886 12.1535C149.965 11.8469 149.196 11.5402 148.582 11.3869C147.967 11.0802 147.506 10.7735 147.045 10.1602C146.584 9.54686 146.43 8.93352 146.43 8.01352C146.43 7.24686 146.584 6.48019 147.045 5.86686C147.506 5.25352 148.121 4.79352 148.889 4.48686C149.657 4.18019 150.579 4.02686 151.501 4.02686C152.423 4.02686 153.345 4.18019 154.113 4.33352C154.882 4.64019 155.804 4.94686 156.572 5.40686L155.343 7.86019C154.421 7.70686 153.652 7.40019 152.884 7.09352Z" fill="black"/>
<path d="M158.416 4.3335H167.943V6.78683H161.335V10.0068H167.482V12.4602H161.335V17.5202H158.262V4.3335H158.416Z" fill="black"/>
<path d="M169.787 4.3335H179.929V6.78683H172.706V9.70016H179.16V12.1535H172.706V15.0668H180.082V17.5202H169.633L169.787 4.3335Z" fill="black"/>
<path d="M190.685 17.8268L188.534 13.9935H188.226H185.46V17.8268H182.387V4.48682H188.226C190.07 4.48682 191.299 4.79348 192.221 5.71348C193.143 6.48015 193.758 7.70682 193.758 9.08682C193.758 10.1601 193.604 11.0802 193.143 11.6935C192.682 12.4602 192.068 13.0735 191.299 13.3801L194.065 17.8268H190.685ZM185.614 11.3868H188.38C189.148 11.3868 189.916 11.2335 190.377 10.7735C190.838 10.4668 190.992 9.85348 190.992 8.93348C190.992 8.16682 190.838 7.55348 190.377 7.24682C189.916 6.94015 189.302 6.63348 188.38 6.63348H185.614V11.3868Z" fill="black"/>
<path d="M196.37 4.3335H206.512V6.78683H199.29V9.70016H205.744V12.1535H199.29V15.0668H206.666V17.5202H196.217L196.37 4.3335Z" fill="black"/>
<path d="M218.344 4.3335H221.11V17.6735H218.344L211.89 9.24016V17.6735H209.124V4.48683H211.89L218.497 13.0735L218.344 4.3335Z" fill="black"/>
<path d="M232.327 7.40015C231.712 7.09348 231.098 6.94015 230.483 6.94015C229.715 6.94015 228.947 7.09348 228.486 7.55348C227.871 7.86015 227.41 8.32015 226.949 9.08682C226.642 9.70015 226.334 10.4668 226.334 11.2335C226.334 12.0001 226.488 12.7668 226.949 13.3801C227.256 13.9935 227.717 14.6068 228.486 14.9135C229.254 15.2201 229.868 15.5268 230.483 15.5268C231.098 15.5268 231.712 15.3735 232.327 15.0668C232.942 14.7601 233.556 14.4535 234.017 13.8401L235.861 15.8335C235.093 16.6002 234.325 17.2135 233.403 17.6735C232.481 18.1335 231.405 18.2868 230.637 18.2868C229.254 18.2868 228.178 17.9801 227.103 17.3668C226.027 16.7535 225.105 15.8335 224.644 14.9135C224.029 13.8401 223.722 12.6135 223.722 11.3868C223.722 10.0068 224.029 8.93348 224.644 7.86015C225.259 6.94015 226.181 6.02015 227.103 5.40682C228.178 4.79348 229.408 4.48682 230.637 4.48682C231.712 4.48682 232.634 4.64015 233.403 5.10015C234.325 5.40682 235.247 6.02015 235.861 6.78682L234.017 8.93348C233.403 8.01348 232.788 7.55348 232.327 7.40015Z" fill="black"/>
<path d="M237.552 4.3335H240.625V17.6735H237.552V4.3335Z" fill="black"/>
<path d="M253.225 17.8268L252.149 15.3735H246.003L244.927 17.8268H241.7L247.54 4.48682H250.613L256.298 17.8268H253.225ZM247.079 12.7668H251.227L249.076 7.55348L247.079 12.7668Z" fill="black"/>
<path d="M131.064 28.1C131.832 28.7133 132.447 29.48 132.447 30.5533C132.447 31.32 132.293 31.9333 131.832 32.3933C131.371 33.0066 130.757 33.3133 130.142 33.4666C130.91 33.62 131.679 34.08 132.14 34.6933C132.601 35.3066 132.908 36.0733 132.908 36.9933C132.908 38.0666 132.447 38.9866 131.525 39.7533C130.603 40.52 129.374 40.8266 127.837 40.8266H121.383V27.3333H127.53C129.066 27.18 130.296 27.64 131.064 28.1ZM128.759 32.24C129.067 31.9333 129.22 31.6266 129.22 31.1666C129.22 30.7066 129.067 30.4 128.759 30.0933C128.298 29.7866 127.991 29.6333 127.376 29.6333H124.457V32.5466H127.376C127.991 32.7 128.452 32.5466 128.759 32.24ZM129.066 37.76C129.374 37.4533 129.681 37.1466 129.681 36.5333C129.681 36.0733 129.527 35.7666 129.066 35.46C128.759 35.1533 127.991 35 127.376 35.1533H124.303V38.22H127.223C127.991 38.22 128.606 38.0666 129.066 37.76Z" fill="black"/>
<path d="M144.894 40.6735L143.818 38.0668H137.672L136.596 40.6735H133.523L139.362 27.3335H142.435L148.121 40.6735H144.894ZM138.594 35.6135H142.742L140.591 30.4002L138.594 35.6135Z" fill="black"/>
<path d="M158.723 27.1802H161.489V40.5202H158.723L152.269 32.0868V40.5202H149.503V27.1802H152.269L158.723 35.7668V27.1802Z" fill="black"/>
<path d="M172.706 30.0935C172.092 29.7868 171.477 29.6335 170.862 29.6335C170.094 29.6335 169.326 29.7868 168.865 30.2468C168.25 30.5535 167.789 31.0135 167.328 31.7802C167.021 32.3935 166.714 33.1602 166.714 33.9268C166.714 34.6935 166.867 35.4602 167.328 36.0735C167.789 36.6868 168.097 37.3002 168.865 37.6068C169.479 37.9135 170.248 38.2202 170.862 38.2202C171.477 38.2202 172.092 38.0668 172.706 37.7602C173.321 37.4535 173.936 37.1468 174.397 36.5335L176.241 38.5268C175.472 39.2935 174.704 39.9068 173.782 40.3668C172.86 40.8268 171.784 40.9802 171.016 40.9802C169.633 40.9802 168.557 40.6735 167.482 40.0602C166.406 39.4468 165.484 38.5268 165.023 37.6068C164.409 36.5335 164.101 35.3068 164.101 34.0802C164.101 32.7002 164.409 31.6268 165.023 30.5535C165.638 29.6335 166.56 28.7135 167.636 28.1002C168.711 27.4868 169.94 27.1802 171.17 27.1802C172.245 27.1802 173.167 27.3335 173.936 27.7935C174.858 28.1002 175.78 28.7135 176.394 29.4802L174.55 31.6268C173.936 30.8602 173.321 30.4002 172.706 30.0935Z" fill="black"/>
<path d="M187.612 40.6735L186.536 38.0668H180.389L179.314 40.6735H176.241L182.08 27.3335H185.153L190.838 40.6735H187.612ZM181.311 35.6135H185.46L183.309 30.4002L181.311 35.6135Z" fill="black"/>
<path d="M200.519 40.6735L198.368 36.8402H198.06H195.295V40.6735H192.221V27.3335H198.06C199.904 27.3335 201.134 27.6402 202.056 28.5602C202.978 29.4802 203.592 30.5535 203.592 31.9335C203.592 33.0068 203.439 33.9268 202.978 34.6935C202.517 35.4602 201.902 36.0735 201.134 36.3802L203.9 40.8268L200.519 40.6735ZM195.295 34.3868H198.06C198.829 34.3868 199.597 34.2335 200.058 33.7735C200.519 33.4668 200.673 32.8535 200.673 31.9335C200.673 31.1668 200.519 30.5535 200.058 30.2468C199.597 29.9402 198.982 29.6335 198.06 29.6335H195.295V34.3868Z" fill="black"/>
<path d="M206.051 27.1802H209.124V40.5202H206.051V27.1802Z" fill="black"/>
<path d="M221.878 40.6735L220.802 38.0668H214.656L213.58 40.6735H210.507L216.346 27.3335H219.419L225.105 40.6735H221.878ZM215.732 35.6135H219.88L217.729 30.4002L215.732 35.6135Z" fill="black"/>
<path d="M76.9753 11.2333L61.1482 0.5L59.6116 7.4H48.7016C36.716 7.4 29.1866 13.38 25.9597 25.1867H34.1038C37.0233 16.6 42.8625 15.22 48.7016 15.22H57.9213L56.3847 22.12L76.9753 11.2333Z" fill="black"/>
<path d="M0.451904 35.7668L16.279 46.5001L17.8157 39.6001H28.7256C40.7112 39.6001 48.2406 33.6201 51.4675 21.8135H43.3235C40.4039 30.2468 34.5648 31.7801 28.7256 31.7801H19.5059L21.0425 24.8801L0.451904 35.7668Z" fill="#0091EB"/>
</g>
<defs>
<clipPath id="clip0_251_4590">
<rect width="256" height="46" fill="white" transform="translate(0.451904 0.5)"/>
</clipPath>
</defs>
</svg>
