<svg width="132" height="47" viewBox="0 0 132 47" fill="none" xmlns="http://www.w3.org/2000/svg">
<g clip-path="url(#clip0_251_4509)">
<path d="M54.3511 43.8857V16.9317C54.3511 11.9721 58.3224 7.95166 63.2212 7.95166L71.0824 7.96365C75.9671 7.97347 79.9219 11.9851 79.9219 16.9303V22.6675C79.9219 27.6271 75.9504 31.6475 71.0515 31.6475H59.9432" stroke="#010101" stroke-width="4" stroke-miterlimit="10" stroke-linecap="round" stroke-linejoin="round"/>
<path d="M82.1189 7.94824H85.5289C87.5394 7.94824 89.169 9.59816 89.169 11.6336V31.7683" stroke="#010101" stroke-width="4" stroke-miterlimit="10" stroke-linecap="round" stroke-linejoin="round"/>
<path d="M88.4378 4.82889L86.8914 3.26319C86.5075 2.87477 86.5075 2.24491 86.8914 1.85648L88.4368 0.291761C88.8213 -0.0972537 89.4443 -0.0972537 89.8283 0.291761L91.3738 1.85648C91.7576 2.24491 91.7576 2.87477 91.3738 3.26319L89.8274 4.82889C89.4437 5.21732 88.8217 5.21732 88.4378 4.82889Z" fill="#32BCAD"/>
<path d="M95.7109 7.93018H99.0928C100.833 7.93018 102.501 8.62989 103.731 9.87506L111.641 17.8828C112.665 18.9202 114.327 18.9202 115.351 17.8828L123.232 9.90437C124.463 8.65921 126.131 7.95949 127.871 7.95949H130.62" stroke="#010101" stroke-width="4" stroke-miterlimit="10" stroke-linecap="round" stroke-linejoin="round"/>
<path d="M95.7109 31.592H99.0928C100.833 31.592 102.501 30.8923 103.731 29.6471L111.641 21.6394C112.665 20.602 114.327 20.602 115.351 21.6394L123.232 29.6178C124.463 30.863 126.131 31.5627 127.871 31.5627H130.62" stroke="#010101" stroke-width="4" stroke-miterlimit="10" stroke-linecap="round" stroke-linejoin="round"/>
<path d="M34.1892 36.7079C32.492 36.7079 30.8956 36.0389 29.6954 34.8245L23.2068 28.2555C22.7512 27.7931 21.9572 27.7944 21.5018 28.2555L14.9896 34.8485C13.7893 36.0629 12.193 36.732 10.4958 36.732H9.21704L17.4351 45.0514C20.0015 47.6496 24.1628 47.6496 26.7294 45.0514L34.9708 36.7079H34.1892Z" fill="#32BCAD"/>
<path d="M10.4959 13.4726C12.1931 13.4726 13.7894 14.1416 14.9897 15.3561L21.502 21.95C21.971 22.4251 22.7368 22.4268 23.2069 21.9495L29.6955 15.3801C30.8958 14.1656 32.4921 13.4966 34.1893 13.4966H34.9709L26.7297 5.15336C24.1628 2.555 20.0016 2.555 17.4352 5.15336L9.21753 13.4726L10.4959 13.4726Z" fill="#32BCAD"/>
<path d="M41.7877 20.3979L36.8074 15.356C36.6977 15.4005 36.579 15.4282 36.4536 15.4282H34.1892C33.0185 15.4282 31.8725 15.9089 31.0453 16.747L24.5569 23.3158C23.9497 23.9305 23.1519 24.238 22.3548 24.238C21.5569 24.238 20.7596 23.9305 20.1526 23.3164L13.6397 16.723C12.8125 15.8847 11.6665 15.4042 10.4958 15.4042H7.71148C7.59272 15.4042 7.48174 15.3759 7.37698 15.3359L2.37687 20.3979C-0.189752 22.9962 -0.189752 27.2087 2.37687 29.807L7.37678 34.8688C7.48173 34.8288 7.59272 34.8005 7.71148 34.8005H10.4958C11.6665 34.8005 12.8125 34.32 13.6397 33.4819L20.152 26.8891C21.3291 25.6985 23.381 25.6981 24.5569 26.8897L31.0453 33.4579C31.8725 34.2959 33.0185 34.7766 34.1892 34.7766H36.4536C36.579 34.7766 36.6977 34.8044 36.8074 34.8489L41.7877 29.807C44.3541 27.2087 44.3541 22.9962 41.7877 20.3978" fill="#32BCAD"/>
<path d="M61.1114 41.5947C60.7438 41.5947 60.316 41.6843 59.8929 41.783V43.4255C60.186 43.5339 60.5207 43.586 60.8416 43.586C61.6552 43.586 62.041 43.3082 62.041 42.5827C62.041 41.9007 61.725 41.5947 61.1114 41.5947ZM59.6184 44.6451V41.3968H59.8417L59.865 41.5382C60.2415 41.4487 60.7622 41.3311 61.1343 41.3311C61.4369 41.3311 61.725 41.3777 61.9666 41.5756C62.2459 41.8066 62.3341 42.1782 62.3341 42.5827C62.3341 43.0071 62.1943 43.407 61.8132 43.628C61.5483 43.7787 61.1902 43.8399 60.8693 43.8399C60.5391 43.8399 60.2231 43.7879 59.8928 43.6893V44.6451H59.6184Z" fill="#010101"/>
<path d="M64.3768 41.5851C63.563 41.5851 63.2003 41.8442 63.2003 42.5691C63.2003 43.2704 63.5584 43.586 64.3768 43.586C65.1858 43.586 65.5485 43.3316 65.5485 42.6067C65.5485 41.9054 65.1907 41.5851 64.3768 41.5851ZM65.4229 43.586C65.1532 43.7834 64.7907 43.8401 64.3768 43.8401C63.9537 43.8401 63.5908 43.7789 63.3259 43.586C63.0283 43.3743 62.9072 43.0256 62.9072 42.5882C62.9072 42.1547 63.0283 41.8021 63.3259 41.5851C63.5908 41.3924 63.9537 41.3311 64.3768 41.3311C64.7951 41.3311 65.1532 41.3924 65.4229 41.5851C65.7254 41.8021 65.8414 42.1547 65.8414 42.5829C65.8414 43.0211 65.7205 43.3743 65.4229 43.586Z" fill="#010101"/>
<path d="M69.2747 43.7739L68.368 41.8018H68.3491L67.4566 43.7739H67.2101L66.2429 41.3965H66.5452L67.3497 43.3923H67.3684L68.2422 41.3965H68.4934L69.3909 43.3923H69.4096L70.1954 41.3965H70.4881L69.5212 43.7739H69.2747Z" fill="#010101"/>
<path d="M72.2424 41.5804C71.4892 41.5804 71.2334 41.9192 71.1867 42.4092H73.298C73.2748 41.8678 73.0002 41.5804 72.2424 41.5804ZM72.2332 43.8399C71.7819 43.8399 71.4892 43.7742 71.2567 43.5762C70.9823 43.3361 70.8892 42.9881 70.8892 42.588C70.8892 42.2067 71.0149 41.8019 71.3265 41.5711C71.5868 41.3877 71.9077 41.3311 72.2424 41.3311C72.5448 41.3311 72.8935 41.3639 73.1815 41.5619C73.5211 41.7923 73.5864 42.1974 73.5864 42.6585H71.1776C71.1867 43.1478 71.345 43.5813 72.2561 43.5813C72.6888 43.5813 73.0933 43.5105 73.47 43.4446V43.6939C73.0793 43.7649 72.6468 43.8399 72.2332 43.8399Z" fill="#010101"/>
<path d="M74.3735 43.7742V41.3968H74.5967L74.6202 41.5383C75.1176 41.4113 75.3501 41.3311 75.7872 41.3311H75.8198V41.5947H75.7545C75.3874 41.5947 75.1643 41.6463 74.6482 41.783V43.7742H74.3735Z" fill="#010101"/>
<path d="M77.4133 41.5804C76.6601 41.5804 76.4043 41.9192 76.3577 42.4092H78.4689C78.4457 41.8678 78.1711 41.5804 77.4133 41.5804ZM77.4041 43.8399C76.9528 43.8399 76.6601 43.7742 76.4276 43.5762C76.153 43.3361 76.0601 42.9881 76.0601 42.588C76.0601 42.2067 76.1858 41.8019 76.4974 41.5711C76.7577 41.3877 77.0786 41.3311 77.4133 41.3311C77.7157 41.3311 78.0644 41.3639 78.3524 41.5619C78.692 41.7923 78.7573 42.1974 78.7573 42.6585H76.3485C76.3577 43.1478 76.5158 43.5813 77.427 43.5813C77.8595 43.5813 78.264 43.5105 78.6409 43.4446V43.6939C78.2502 43.7649 77.8177 43.8399 77.4041 43.8399Z" fill="#010101"/>
<path d="M81.7626 41.7456C81.4696 41.6371 81.1349 41.5852 80.814 41.5852C80.0004 41.5852 79.6142 41.8634 79.6142 42.5881C79.6142 43.2751 79.9304 43.5763 80.544 43.5763C80.9116 43.5763 81.3394 43.4868 81.7626 43.3927V41.7456ZM81.8138 43.7743L81.7905 43.6328C81.4138 43.7223 80.893 43.8402 80.5209 43.8402C80.2191 43.8402 79.9304 43.7978 79.6886 43.5954C79.4097 43.3646 79.3213 42.9927 79.3213 42.5881C79.3213 42.1645 79.4608 41.7641 79.842 41.5476C80.1071 41.3924 80.4651 41.3312 80.7907 41.3312C81.1163 41.3312 81.4325 41.3878 81.7626 41.4819V40.3945H82.037V43.7743H81.8138Z" fill="#010101"/>
<path d="M86.0596 41.5945C85.6921 41.5945 85.2643 41.6841 84.8411 41.7828V43.4208C85.1389 43.5337 85.4689 43.5859 85.7898 43.5859C86.6034 43.5859 86.9893 43.308 86.9893 42.5825C86.9893 41.9005 86.6732 41.5945 86.0596 41.5945ZM86.7617 43.6278C86.4965 43.7785 86.1385 43.8397 85.8176 43.8397C85.4689 43.8397 85.1202 43.7785 84.7669 43.6608L84.7528 43.774H84.5667V40.394H84.8411V41.5282C85.2178 41.444 85.7245 41.3309 86.0825 41.3309C86.3852 41.3309 86.6732 41.3775 86.9148 41.5755C87.1941 41.8065 87.2824 42.178 87.2824 42.5825C87.2824 43.007 87.1426 43.4068 86.7617 43.6278Z" fill="#010101"/>
<path d="M87.6464 44.6869V44.4283C87.7811 44.4421 87.9071 44.4519 87.9953 44.4519C88.3349 44.4519 88.5392 44.3528 88.7298 43.962L88.8183 43.7739L87.5908 41.3965H87.9071L88.958 43.4488H88.9765L89.9761 41.3965H90.2877L88.9672 44.0659C88.7254 44.5507 88.4649 44.7105 87.986 44.7105C87.8789 44.7105 87.7628 44.7012 87.6464 44.6869" fill="#010101"/>
<path d="M94.069 42.4185H93.1579V43.2521H94.0735C94.7013 43.2521 94.9386 43.181 94.9386 42.8329C94.9386 42.4606 94.6133 42.4185 94.069 42.4185ZM93.9019 41.0675H93.1579V41.9146H93.9064C94.5248 41.9146 94.7711 41.8396 94.7711 41.4864C94.7711 41.1102 94.4597 41.0675 93.9019 41.0675ZM95.3153 43.5486C94.9803 43.765 94.5758 43.7743 93.8366 43.7743H92.4463V40.5498H93.8041C94.4411 40.5498 94.8316 40.5591 95.1571 40.757C95.3898 40.8983 95.4825 41.1147 95.4825 41.3971C95.4825 41.7357 95.3433 41.962 94.9802 42.1127V42.1313C95.3898 42.2259 95.6547 42.4376 95.6547 42.8941C95.6547 43.2047 95.5431 43.4071 95.3153 43.5486" fill="#010101"/>
<path d="M98.4363 42.7764C98.1616 42.7525 97.8829 42.7388 97.59 42.7388C97.1111 42.7388 96.9433 42.8375 96.9433 43.0585C96.9433 43.2657 97.0831 43.3789 97.4502 43.3789C97.7571 43.3789 98.1245 43.3084 98.4363 43.2374V42.7764ZM98.5756 43.7742L98.557 43.6329C98.157 43.7321 97.6922 43.8401 97.2829 43.8401C97.0316 43.8401 96.7621 43.807 96.5713 43.6658C96.395 43.5388 96.311 43.3316 96.311 43.0916C96.311 42.823 96.4274 42.5737 96.7062 42.4468C96.9526 42.3291 97.2829 42.3198 97.5853 42.3198C97.8316 42.3198 98.1616 42.3336 98.4362 42.3527V42.31C98.4362 41.9383 98.1943 41.8159 97.534 41.8159C97.2782 41.8159 96.9666 41.8297 96.669 41.858V41.3779C96.9991 41.3502 97.3713 41.3311 97.6782 41.3311C98.0872 41.3311 98.5107 41.3641 98.7709 41.5522C99.0403 41.7455 99.0918 42.0138 99.0918 42.3665V43.7742L98.5756 43.7742Z" fill="#010101"/>
<path d="M102.158 43.7742V42.4605C102.158 42.0278 101.939 41.8724 101.549 41.8724C101.26 41.8724 100.898 41.9475 100.591 42.0231V43.7742H99.9351V41.3968H100.47L100.493 41.5475C100.907 41.4395 101.367 41.3311 101.749 41.3311C102.037 41.3311 102.33 41.3732 102.553 41.5758C102.739 41.7455 102.809 41.9804 102.809 42.3196V43.7742H102.158Z" fill="#010101"/>
<path d="M104.661 43.8399C104.359 43.8399 104.028 43.7978 103.787 43.5906C103.499 43.355 103.415 42.9833 103.415 42.5827C103.415 42.2065 103.536 41.7968 103.894 41.5664C104.187 41.3732 104.549 41.3311 104.926 41.3311C105.196 41.3311 105.461 41.35 105.754 41.3777V41.8861C105.516 41.8631 105.233 41.844 105.005 41.844C104.382 41.844 104.089 42.042 104.089 42.588C104.089 43.1012 104.308 43.3222 104.819 43.3222C105.116 43.3222 105.466 43.2657 105.805 43.1998V43.6891C105.437 43.7649 105.038 43.8399 104.661 43.8399" fill="#010101"/>
<path d="M107.742 41.8297C107.118 41.8297 106.844 42.0276 106.844 42.5689C106.844 43.1105 107.114 43.3413 107.742 43.3413C108.36 43.3413 108.629 43.1478 108.629 42.6065C108.629 42.0652 108.365 41.8297 107.742 41.8297ZM108.867 43.5906C108.578 43.7879 108.202 43.8399 107.742 43.8399C107.272 43.8399 106.895 43.7834 106.612 43.5906C106.286 43.3741 106.17 43.0164 106.17 42.588C106.17 42.1593 106.286 41.7968 106.612 41.5804C106.895 41.3875 107.272 41.3311 107.742 41.3311C108.207 41.3311 108.578 41.3875 108.867 41.5804C109.192 41.7968 109.304 42.1593 109.304 42.5829C109.304 43.0117 109.188 43.3741 108.867 43.5906Z" fill="#010101"/>
<path d="M113.089 43.84C112.694 43.84 112.266 43.7743 111.945 43.5059C111.564 43.1855 111.448 42.6915 111.448 42.1592C111.448 41.6842 111.597 41.1193 112.094 40.7899C112.48 40.5358 112.959 40.4839 113.443 40.4839C113.796 40.4839 114.159 40.5075 114.554 40.5404V41.1193C114.215 41.0909 113.796 41.0673 113.471 41.0673C112.564 41.0673 112.178 41.416 112.178 42.1592C112.178 42.9178 112.536 43.2566 113.206 43.2566C113.643 43.2566 114.131 43.1671 114.624 43.0632V43.6373C114.131 43.7367 113.615 43.84 113.089 43.84" fill="#010101"/>
<path d="M116.55 41.7547C116.006 41.7547 115.797 41.9526 115.755 42.3151H117.336C117.317 41.929 117.094 41.7547 116.55 41.7547ZM116.452 43.8401C116.067 43.8401 115.718 43.7932 115.457 43.5762C115.179 43.3413 115.081 42.9881 115.081 42.5829C115.081 42.2205 115.197 41.8159 115.523 41.5804C115.811 41.3734 116.178 41.3311 116.55 41.3311C116.885 41.3311 117.28 41.3686 117.569 41.5711C117.945 41.8395 117.978 42.2539 117.982 42.7433H115.751C115.764 43.1059 115.955 43.3413 116.615 43.3413C117.024 43.3413 117.48 43.2801 117.866 43.2189V43.6848C117.415 43.7604 116.922 43.8401 116.452 43.8401Z" fill="#010101"/>
<path d="M120.899 43.7742V42.4605C120.899 42.0278 120.681 41.8724 120.29 41.8724C120.002 41.8724 119.639 41.9475 119.332 42.0231V43.7742H118.677V41.3968H119.211L119.235 41.5475C119.648 41.4395 120.109 41.3311 120.49 41.3311C120.778 41.3311 121.072 41.3732 121.295 41.5758C121.48 41.7455 121.55 41.9804 121.55 42.3196V43.7742H120.899Z" fill="#010101"/>
<path d="M123.417 43.8397C123.101 43.8397 122.812 43.7502 122.654 43.5009C122.538 43.3313 122.482 43.1011 122.482 42.7807V41.8907H122.008V41.3966H122.482L122.552 40.6763H123.133V41.3966H124.058V41.8907H123.133V42.6536C123.133 42.8372 123.147 42.9925 123.198 43.1056C123.268 43.2656 123.421 43.3266 123.626 43.3266C123.779 43.3266 123.965 43.303 124.095 43.2799V43.7549C123.881 43.7977 123.635 43.8398 123.417 43.8398" fill="#010101"/>
<path d="M124.698 43.7742V41.3968H125.233L125.256 41.5475C125.688 41.4251 126.009 41.3311 126.418 41.3311C126.437 41.3311 126.465 41.3311 126.502 41.3355V41.9006C126.427 41.8962 126.339 41.8962 126.274 41.8962C125.953 41.8962 125.712 41.9335 125.353 42.0186V43.7742L124.698 43.7742Z" fill="#010101"/>
<path d="M128.886 42.7764C128.611 42.7525 128.332 42.7388 128.039 42.7388C127.561 42.7388 127.393 42.8375 127.393 43.0585C127.393 43.2657 127.533 43.3789 127.9 43.3789C128.207 43.3789 128.574 43.3084 128.886 43.2374V42.7764ZM129.025 43.7742L129.007 43.6329C128.607 43.7321 128.142 43.8401 127.732 43.8401C127.481 43.8401 127.212 43.807 127.021 43.6658C126.844 43.5388 126.76 43.3316 126.76 43.0916C126.76 42.823 126.877 42.5737 127.156 42.4468C127.402 42.3291 127.732 42.3198 128.035 42.3198C128.281 42.3198 128.611 42.3336 128.886 42.3527V42.31C128.886 41.9383 128.644 41.8159 127.983 41.8159C127.728 41.8159 127.416 41.8297 127.119 41.858V41.3779C127.449 41.3502 127.821 41.3311 128.128 41.3311C128.537 41.3311 128.96 41.3641 129.22 41.5522C129.49 41.7455 129.541 42.0138 129.541 42.3665V43.7742L129.025 43.7742Z" fill="#010101"/>
<path d="M130.385 40.3945H131.04V43.7743H130.385V40.3945Z" fill="#010101"/>
</g>
<defs>
<clipPath id="clip0_251_4509">
<rect width="131" height="47" fill="white" transform="translate(0.451904)"/>
</clipPath>
</defs>
</svg>
