<svg width="69" height="39" viewBox="0 0 69 39" fill="none" xmlns="http://www.w3.org/2000/svg">
<path d="M40.5889 9.29492H28.3062V29.7069H40.5889V9.29492Z" fill="#FF5F00"/>
<path d="M29.0824 19.5C29.0805 17.5342 29.5622 15.5937 30.4911 13.8255C31.42 12.0573 32.7717 10.5077 34.4439 9.29399C32.3731 7.78873 29.8861 6.85264 27.2672 6.5927C24.6483 6.33275 22.0031 6.75944 19.6341 7.82401C17.265 8.88858 15.2676 10.5481 13.8702 12.6128C12.4727 14.6775 11.7317 17.0642 11.7317 19.5C11.7317 21.9358 12.4727 24.3224 13.8702 26.3872C15.2676 28.4519 17.265 30.1114 19.6341 31.176C22.0031 32.2405 24.6483 32.6672 27.2672 32.4073C29.8861 32.1473 32.3731 31.2112 34.4439 29.706C32.7717 28.4923 31.42 26.9427 30.4911 25.1745C29.5622 23.4063 29.0805 21.4658 29.0824 19.5Z" fill="#EB001B"/>
<path d="M57.1593 19.5C57.1594 21.9357 56.4184 24.3224 55.0211 26.3871C53.6237 28.4518 51.6264 30.1113 49.2574 31.1759C46.8883 32.2405 44.2432 32.6672 41.6243 32.4073C39.0055 32.1473 36.5185 31.2112 34.4478 29.706C36.1185 28.4911 37.4692 26.9412 38.3979 25.1733C39.3266 23.4053 39.8092 21.4655 39.8092 19.5C39.8092 17.5345 39.3266 15.5946 38.3979 13.8267C37.4692 12.0587 36.1185 10.5089 34.4478 9.29399C36.5185 7.78873 39.0055 6.85263 41.6243 6.59269C44.2432 6.33275 46.8883 6.75946 49.2574 7.82404C51.6264 8.88862 53.6237 10.5481 55.0211 12.6128C56.4184 14.6776 57.1594 17.0642 57.1593 19.5Z" fill="#F79E1B"/>
<path d="M55.5397 27.6883V27.1502H55.7743V27.0406H55.1768V27.1502H55.4115V27.6883H55.5397ZM56.6998 27.6883V27.0396H56.5166L56.3059 27.4858L56.0952 27.0396H55.9119V27.6883H56.0413V27.1989L56.2388 27.6209H56.373L56.5705 27.1979V27.6883H56.6998Z" fill="#F79E1B"/>
</svg>
