<svg width="151" height="35" viewBox="0 0 151 35" fill="none" xmlns="http://www.w3.org/2000/svg">
<g clip-path="url(#clip0_251_4576)">
<path d="M19.5001 9.77684C18.4773 9.18232 17.3411 9.03369 16.0171 9.03369C13.9421 9.03369 11.9864 9.73382 10.2224 11.4294L10.4903 9.78271C10.5549 9.38962 10.2517 9.03369 9.85279 9.03369H5.56791C5.25501 9.03369 4.98708 9.25859 4.93232 9.56759L0.764783 33.196C0.694379 33.5911 0.999463 33.9529 1.40038 33.9529H5.67939C5.99229 33.9529 6.26022 33.728 6.31498 33.4209L7.74262 25.3577C8.19047 25.9033 8.9258 26.3394 9.69047 26.6797C10.4551 27.02 11.2706 27.1901 12.137 27.1901C13.9089 27.1901 15.5125 26.8088 16.9441 26.0441C18.3756 25.2795 19.5647 24.2273 20.5092 22.8877C21.4538 21.548 22.1109 20.0265 22.4806 18.3231C22.6566 17.5057 22.7426 16.7253 22.7426 15.9861C22.7426 14.5839 22.4571 13.3459 21.888 12.2762C21.3208 11.2045 20.5229 10.3714 19.5001 9.77684ZM17.5151 18.0611C17.3293 18.8883 16.989 19.6334 16.4923 20.2964C15.9956 20.9594 15.3795 21.4815 14.6442 21.8668C13.9089 22.2521 13.1129 22.4437 12.2563 22.4437C11.5347 22.4437 10.9245 22.2931 10.4219 21.99C9.91928 21.6888 9.54379 21.2821 9.28956 20.7697C9.03532 20.2592 8.91015 19.6901 8.91015 19.0682C8.91015 18.7084 8.9434 18.372 9.01185 18.0611C9.1683 17.3218 9.50077 16.608 10.0132 15.9216C10.5236 15.2351 11.1474 14.6778 11.8828 14.2495C12.6181 13.8212 13.3808 13.606 14.169 13.606C15.3091 13.606 16.1735 13.9072 16.7622 14.5115C17.3508 15.1158 17.6461 15.9137 17.6461 16.9072C17.6461 17.2768 17.6012 17.6621 17.5151 18.0611Z" fill="black"/>
<path d="M65.6676 9.03174H61.3768C61.1461 9.03174 60.9329 9.15495 60.8175 9.35443L54.5731 20.1693L52.7034 9.56368C52.6487 9.25469 52.3807 9.02979 52.0678 9.02979H48.2347C47.8338 9.02979 47.5287 9.39158 47.5991 9.78663L50.5913 26.7599C50.6167 26.9085 50.5913 27.063 50.515 27.1941L47.1728 32.9887C46.9244 33.419 47.2354 33.9568 47.7321 33.9568H52.0229C52.2536 33.9568 52.4668 33.8336 52.5822 33.6341L66.2269 9.9998C66.4753 9.56955 66.1643 9.03174 65.6676 9.03174Z" fill="black"/>
<path d="M45.3012 9.05909H41.7653C41.5365 9.05909 41.3233 9.18034 41.2079 9.37982L40.1049 11.2768C39.0919 9.70055 37.5528 9.05127 35.5091 9.05127C33.6708 9.05127 31.9967 9.29377 30.4635 10.0584C28.9302 10.8231 27.6551 11.8889 26.6382 13.256C25.6212 14.623 24.9368 16.1777 24.5867 17.9202C24.4498 18.6204 24.3813 19.2677 24.3813 19.8622C24.3813 21.3133 24.7138 22.6002 25.3807 23.7227C26.0476 24.8472 26.955 25.7195 28.103 26.3433C29.251 26.9672 30.5163 27.2781 31.8989 27.2781C32.8044 27.2781 34.279 27.0728 35.0886 26.7481C36.0411 26.3668 36.4928 26.2925 37.3201 25.5904L38.0006 26.9222C38.1102 27.1373 38.3331 27.2742 38.5756 27.2742H41.6089C42.3305 27.2742 42.9465 26.756 43.0717 26.0461L45.9328 9.81789C46.0052 9.42089 45.7021 9.05909 45.3012 9.05909ZM38.0906 18.0787C37.9244 18.8668 37.5821 19.6002 37.0619 20.2749C36.5417 20.9515 35.912 21.4913 35.1708 21.8961C34.4315 22.3009 33.6669 22.5024 32.8787 22.5024C32.2079 22.5024 31.6154 22.3596 31.1049 22.0721C30.5945 21.7846 30.1995 21.3876 29.9218 20.8831C29.6441 20.3766 29.5052 19.7938 29.5052 19.1308C29.5052 18.8198 29.5443 18.4698 29.6225 18.0806C29.7986 17.2338 30.1506 16.473 30.6806 15.7964C31.2106 15.1197 31.8383 14.5936 32.5639 14.2201C33.2894 13.8466 34.0209 13.6588 34.7601 13.6588C35.4407 13.6588 36.043 13.8114 36.5632 14.1184C37.0834 14.4255 37.4843 14.8401 37.7679 15.3661C38.0495 15.8922 38.1903 16.4809 38.1903 17.1321C38.1923 17.4607 38.1591 17.7775 38.0906 18.0787Z" fill="black"/>
<path d="M130.187 9.04151H125.912C125.597 9.04151 125.329 9.26641 125.275 9.57736C125.275 9.57736 124.111 16.1719 123.659 18.7358C123.292 20.8205 121.764 22.0937 120.076 22.1073C119.795 22.1093 119.533 22.0937 119.288 22.0604C117.943 21.8785 117.033 20.8029 117.27 19.4652L118.907 10.1797C119.013 9.58518 118.555 9.03955 117.951 9.03955H114.335C113.863 9.03955 113.46 9.37788 113.378 9.84137L111.301 21.6243C110.795 24.4952 114.464 27.1295 117.38 27.1295C121.483 27.1295 122.505 25.2834 122.505 25.2834L122.314 26.3707C122.243 26.7677 122.548 27.1315 122.951 27.1315H127.226C127.541 27.1315 127.809 26.9066 127.864 26.5956L130.825 9.80031C130.893 9.40526 130.59 9.04151 130.187 9.04151Z" fill="black"/>
<path d="M131.273 27.1315H135.548C135.863 27.1315 136.131 26.9066 136.185 26.5956C136.185 26.5956 137.349 20.0011 137.801 17.4372C138.168 15.3525 139.696 14.0793 141.384 14.0656C141.665 14.0637 141.927 14.0793 142.172 14.1126C143.517 14.2944 144.427 15.3701 144.19 16.7077L142.553 25.9933C142.447 26.5878 142.905 27.1334 143.509 27.1334H147.125C147.597 27.1334 148 26.7951 148.082 26.3316L150.159 14.5487C150.665 11.6777 146.996 9.04346 144.08 9.04346C139.977 9.04346 138.955 10.8896 138.955 10.8896L139.146 9.80226C139.217 9.40526 138.912 9.0415 138.509 9.0415H134.234C133.919 9.0415 133.651 9.26641 133.596 9.57736L130.635 26.3727C130.565 26.7677 130.87 27.1315 131.273 27.1315Z" fill="black"/>
<path d="M110.429 9.03174H107.427C104.034 9.03174 101.13 11.4685 100.541 14.8107L100.142 17.0735H97.1227C96.8098 17.0735 96.5419 17.2984 96.4871 17.6074L95.8516 21.2175C95.7811 21.6126 96.0862 21.9744 96.4871 21.9744H99.2799L98.2316 27.7866C98.0947 28.5572 97.4259 29.1204 96.6416 29.1204H94.9754C94.6625 29.1204 94.3946 29.3453 94.3398 29.6543L93.712 33.1999C93.6416 33.595 93.9467 33.9568 94.3476 33.9568L96.8137 33.9587C100.246 33.9607 103.185 31.4985 103.782 28.1171L104.863 21.9802L108.376 21.9744C108.689 21.9744 108.957 21.7495 109.009 21.4405L109.645 17.8303C109.715 17.4353 109.41 17.0715 109.007 17.0735L105.726 17.0793L105.99 15.5891C106.142 14.7247 106.893 14.093 107.771 14.0891L109.76 14.0852C110.073 14.0852 110.341 13.8603 110.394 13.5533L111.061 9.79054C111.135 9.39354 110.83 9.03174 110.429 9.03174Z" fill="black"/>
<path d="M89.5972 24.0396H71.9355V29.0148H79.811C80.1768 29.0148 80.474 29.312 80.474 29.6777V33.3192C80.474 33.6849 80.7713 33.9822 81.137 33.9822H85.7817C86.1474 33.9822 86.4447 33.6849 86.4447 33.3192V29.6738C86.4447 29.3081 86.7419 29.0109 87.1076 29.0109H89.5992C89.9649 29.0109 90.2621 28.7136 90.2621 28.3479V24.7025C90.2602 24.3349 89.9629 24.0396 89.5972 24.0396Z" fill="black"/>
<path d="M88.4961 6.42689L84.2914 3.9999C83.6578 3.63419 82.8462 3.85126 82.4805 4.4849L74.0594 19.0703C73.5489 19.9543 74.1865 21.0592 75.2073 21.0592H83.3644C83.8377 21.0592 84.2758 20.8069 84.5124 20.3962L89.7888 11.2574C90.7667 9.56574 90.1858 7.40277 88.4961 6.42689ZM85.1441 8.60746L86.0183 9.11202L84.53 11.6896L83.6558 11.185L85.1441 8.60746ZM83.0887 8.18699C83.2725 7.87017 83.6773 7.76065 83.9942 7.94449L84.2817 8.11072L82.7934 10.6883L81.9329 10.1916L83.0887 8.18699ZM85.5724 13.835C85.3886 14.1518 84.9837 14.2613 84.6669 14.0775L81.5066 12.2528C81.1897 12.069 81.0802 11.6642 81.2641 11.3474L81.4342 11.052L85.7445 13.5397L85.5724 13.835ZM87.399 10.6746L86.2412 12.6792L85.3925 12.1883L86.8807 9.61072L87.1565 9.76913C87.4733 9.951 87.5809 10.3578 87.399 10.6746Z" fill="black"/>
<path d="M65.4309 19.8487L75.6845 2.08926C76.416 0.820034 78.0392 0.385876 79.3064 1.11925L79.8931 1.45758C80.21 1.64142 80.3195 2.04624 80.1356 2.36306L67.8931 23.5664C67.7093 23.8833 67.3045 23.9928 66.9877 23.809L66.401 23.4706C65.1337 22.7392 64.6995 21.118 65.4309 19.8487Z" fill="black"/>
</g>
<defs>
<clipPath id="clip0_251_4576">
<rect width="150" height="35" fill="white" transform="translate(0.451904)"/>
</clipPath>
</defs>
</svg>
