<svg width="129" height="39" viewBox="0 0 129 39" fill="none" xmlns="http://www.w3.org/2000/svg">
<path fill-rule="evenodd" clip-rule="evenodd" d="M45.6289 38.5599L52.0511 0.661621H62.4595L56.0373 38.5599H45.6289Z" fill="#00579F"/>
<path fill-rule="evenodd" clip-rule="evenodd" d="M93.4636 1.54237C91.4705 0.881356 88.3702 0 84.1625 0C73.9756 0 66.8891 5.0678 66.6676 12.5593C66.6676 17.8475 71.9825 20.9322 75.7472 22.6949C79.9549 24.678 81.2836 25.7797 81.2836 27.5424C81.2836 29.9661 77.9618 31.0678 75.0829 31.0678C70.8752 31.0678 68.6607 30.6271 65.3389 29.0847L63.7887 28.6441L62.46 37.0169C64.896 38.1186 69.3251 39 73.9756 39C84.8269 39 91.9134 33.9322 92.1349 26.2203C92.1349 21.8136 89.256 18.5085 83.2767 15.8644C79.7334 14.1017 77.5189 13 77.5189 11.2373C77.5189 9.69492 79.512 7.9322 83.4982 7.9322C86.82 7.9322 89.256 8.59322 91.2491 9.25424L92.1349 9.69492L93.4636 1.54237Z" fill="#00579F"/>
<path fill-rule="evenodd" clip-rule="evenodd" d="M120.258 0.661621H112.064C109.628 0.661621 107.857 1.32264 106.749 3.74637L91.2476 38.5599H102.099C102.099 38.5599 103.87 33.9328 104.313 32.8311C105.642 32.8311 116.051 32.8311 117.601 32.8311C118.044 34.1532 118.929 38.5599 118.929 38.5599H128.452L120.258 0.661621ZM107.414 25.1193C108.3 22.9159 111.4 14.543 111.4 14.543C111.4 14.543 112.286 12.3396 112.95 10.7972L113.615 14.1023C113.615 14.1023 115.608 23.1362 116.051 25.1193H107.414Z" fill="#00579F"/>
<path fill-rule="evenodd" clip-rule="evenodd" d="M36.7705 0.663086L26.8051 26.4427L25.6978 21.1546C23.7047 15.2055 17.9469 8.59529 11.3032 5.2902L20.6043 38.5614H31.4556L47.8433 0.663086H36.7705Z" fill="#00579F"/>
<path fill-rule="evenodd" clip-rule="evenodd" d="M17.2825 0.661621H0.673359L0.451904 1.54298C13.5177 4.62772 22.1545 12.1192 25.6978 21.1531L21.933 3.96671C21.4901 1.54298 19.497 0.661621 17.2825 0.661621Z" fill="#00579F"/>
</svg>
