<svg width="272" height="81" viewBox="0 0 272 81" fill="none" xmlns="http://www.w3.org/2000/svg">
<path d="M2.21217 24.1458V0.325666H16.9834V3.41949H5.80612V10.6772H15.925V13.7594H5.80612V24.1458H2.21217Z" fill="white"/>
<path d="M24.9971 0.325666V24.1458H21.4032V0.325666H24.9971Z" fill="white"/>
<path d="M30.231 24.1458V0.325666H45.0023V3.41949H33.825V10.6772H43.9439V13.7594H33.825V24.1458H30.231Z" fill="white"/>
<path d="M48.4596 24.1458H44.6446L53.2166 0.325666H57.3688L65.9408 24.1458H62.1259L55.3916 4.65236H55.2055L48.4596 24.1458ZM49.0993 14.8178H61.4746V17.8418H49.0993V14.8178Z" fill="white"/>
<path d="M82.7126 24.1458L76.1062 0.325666H79.8863L84.527 18.7723H84.748L89.5748 0.325666H93.32L98.1468 18.7839H98.3678L102.997 0.325666H106.789L100.171 24.1458H96.5534L91.5405 6.30395H91.3544L86.3414 24.1458H82.7126Z" fill="white"/>
<path d="M129.574 12.2357C129.574 14.779 129.108 16.9656 128.178 18.7955C127.247 20.6177 125.972 22.0212 124.351 23.0059C122.738 23.9829 120.905 24.4714 118.85 24.4714C116.787 24.4714 114.946 23.9829 113.325 23.0059C111.712 22.0212 110.441 20.6138 109.51 18.7839C108.58 16.954 108.114 14.7713 108.114 12.2357C108.114 9.69242 108.58 7.50969 109.51 5.68751C110.441 3.85758 111.712 2.45412 113.325 1.47713C114.946 0.492375 116.787 0 118.85 0C120.905 0 122.738 0.492375 124.351 1.47713C125.972 2.45412 127.247 3.85758 128.178 5.68751C129.108 7.50969 129.574 9.69242 129.574 12.2357ZM126.014 12.2357C126.014 10.2972 125.7 8.66503 125.072 7.3391C124.452 6.00543 123.599 4.99741 122.514 4.31507C121.436 3.62497 120.215 3.27992 118.85 3.27992C117.477 3.27992 116.252 3.62497 115.174 4.31507C114.097 4.99741 113.244 6.00543 112.616 7.3391C111.995 8.66503 111.685 10.2972 111.685 12.2357C111.685 14.1742 111.995 15.8103 112.616 17.144C113.244 18.4699 114.097 19.4779 115.174 20.168C116.252 20.8503 117.477 21.1915 118.85 21.1915C120.215 21.1915 121.436 20.8503 122.514 20.168C123.599 19.4779 124.452 18.4699 125.072 17.144C125.7 15.8103 126.014 14.1742 126.014 12.2357Z" fill="white"/>
<path d="M134.054 24.1458V0.325666H142.545C144.39 0.325666 145.922 0.643577 147.139 1.2794C148.364 1.91522 149.279 2.79529 149.884 3.91962C150.489 5.03618 150.791 6.32721 150.791 7.79271C150.791 9.25045 150.485 10.5337 149.872 11.6425C149.268 12.7436 148.353 13.6004 147.127 14.213C145.91 14.8255 144.379 15.1318 142.533 15.1318H136.101V12.038H142.208C143.371 12.038 144.317 11.8713 145.046 11.5379C145.782 11.2044 146.321 10.7198 146.662 10.084C147.003 9.44817 147.174 8.68441 147.174 7.79271C147.174 6.89325 147 6.11398 146.651 5.4549C146.309 4.79581 145.771 4.29181 145.034 3.94288C144.305 3.5862 143.347 3.40786 142.161 3.40786H137.648V24.1458H134.054ZM145.813 13.3988L151.698 24.1458H147.604L141.835 13.3988H145.813Z" fill="white"/>
<path d="M155.164 24.1458V0.325666H158.758V21.0519H169.552V24.1458H155.164Z" fill="white"/>
<path d="M181.363 24.1458H173.652V0.325666H181.607C183.941 0.325666 185.946 0.802533 187.62 1.75627C189.295 2.70225 190.579 4.06306 191.47 5.83872C192.37 7.60661 192.819 9.72732 192.819 12.2008C192.819 14.6821 192.366 16.8144 191.459 18.5978C190.559 20.3812 189.257 21.7537 187.551 22.7152C185.845 23.6689 183.782 24.1458 181.363 24.1458ZM177.246 21.0054H181.165C182.98 21.0054 184.488 20.6642 185.69 19.9819C186.892 19.2918 187.791 18.2954 188.388 16.9928C188.985 15.6823 189.284 14.085 189.284 12.2008C189.284 10.3321 188.985 8.74644 188.388 7.44378C187.799 6.14112 186.919 5.15249 185.748 4.4779C184.577 3.80331 183.123 3.46601 181.386 3.46601H177.246V21.0054Z" fill="white"/>
<path d="M225.741 8.07185H222.112C221.972 7.29646 221.713 6.61411 221.333 6.02481C220.953 5.43551 220.487 4.93538 219.937 4.52442C219.386 4.11346 218.77 3.80331 218.088 3.59395C217.413 3.38459 216.696 3.27992 215.936 3.27992C214.563 3.27992 213.334 3.62497 212.249 4.31507C211.171 5.00517 210.318 6.01706 209.69 7.35073C209.07 8.68441 208.76 10.3127 208.76 12.2357C208.76 14.1742 209.07 15.8103 209.69 17.144C210.318 18.4776 211.175 19.4856 212.261 20.168C213.346 20.8503 214.567 21.1915 215.924 21.1915C216.676 21.1915 217.39 21.0907 218.064 20.8891C218.747 20.6798 219.363 20.3735 219.914 19.9703C220.464 19.5671 220.929 19.0747 221.309 18.4931C221.697 17.9038 221.965 17.2293 222.112 16.4694L225.741 16.481C225.547 17.6518 225.171 18.7296 224.613 19.7144C224.062 20.6914 223.353 21.5366 222.484 22.2499C221.623 22.9555 220.639 23.5022 219.53 23.8899C218.421 24.2776 217.211 24.4714 215.901 24.4714C213.838 24.4714 212.001 23.9829 210.388 23.0059C208.775 22.0212 207.504 20.6138 206.573 18.7839C205.65 16.954 205.189 14.7713 205.189 12.2357C205.189 9.69242 205.654 7.50969 206.585 5.68751C207.515 3.85758 208.787 2.45412 210.4 1.47713C212.012 0.492375 213.846 0 215.901 0C217.165 0 218.344 0.182218 219.437 0.546654C220.538 0.903334 221.527 1.4306 222.403 2.12846C223.279 2.81856 224.004 3.66374 224.578 4.66399C225.151 5.6565 225.539 6.79245 225.741 8.07185Z" fill="white"/>
<path d="M245.359 0.325666H248.965V15.9925C248.965 17.6596 248.573 19.1367 247.79 20.4239C247.007 21.7033 245.906 22.7113 244.487 23.4479C243.068 24.1768 241.405 24.5412 239.497 24.5412C237.598 24.5412 235.938 24.1768 234.519 23.4479C233.1 22.7113 231.999 21.7033 231.216 20.4239C230.433 19.1367 230.041 17.6596 230.041 15.9925V0.325666H233.635V15.7017C233.635 16.7795 233.872 17.7371 234.345 18.5746C234.825 19.412 235.504 20.0711 236.38 20.5518C237.256 21.0248 238.295 21.2613 239.497 21.2613C240.707 21.2613 241.75 21.0248 242.626 20.5518C243.51 20.0711 244.184 19.412 244.65 18.5746C245.123 17.7371 245.359 16.7795 245.359 15.7017V0.325666Z" fill="white"/>
<path d="M254.19 24.1458V0.325666H262.681C264.534 0.325666 266.069 0.662962 267.286 1.33755C268.504 2.01215 269.415 2.93487 270.02 4.10571C270.624 5.2688 270.927 6.57922 270.927 8.03696C270.927 9.50245 270.621 10.8206 270.008 11.9915C269.403 13.1546 268.488 14.0773 267.263 14.7596C266.046 15.4342 264.514 15.7715 262.669 15.7715H256.83V12.7242H262.343C263.514 12.7242 264.464 12.5226 265.193 12.1194C265.922 11.7084 266.457 11.1502 266.798 10.4446C267.139 9.73895 267.31 8.93641 267.31 8.03696C267.31 7.1375 267.139 6.33885 266.798 5.64099C266.457 4.94314 265.918 4.39648 265.181 4.00103C264.452 3.60558 263.491 3.40786 262.297 3.40786H257.784V24.1458H254.19Z" fill="white"/>
<mask id="path-2-outside-1_190_3625" maskUnits="userSpaceOnUse" x="0.514313" y="35.8232" width="272" height="46" fill="black">
<rect fill="white" x="0.514313" y="35.8232" width="272" height="46"/>
<path d="M31.6639 79.9998C31.4933 79.9998 30.9339 79.8196 29.9858 79.4594C29.0377 79.0991 27.3216 78.4165 24.8376 77.4115L10.7299 71.8082C7.73386 70.6325 5.44893 68.6131 3.87509 65.7498C2.30124 62.8866 1.51431 59.2743 1.51431 54.913C1.51431 51.0448 2.14006 47.7643 3.39155 45.0717C4.66201 42.3602 6.50133 40.3123 8.9095 38.928C11.3366 37.5248 14.2758 36.8232 17.7268 36.8232C21.1969 36.8232 24.136 37.5248 26.5442 38.928C28.9713 40.3123 30.8106 42.3602 32.0621 45.0717C33.3136 47.7643 33.9394 51.0448 33.9394 54.913C33.9394 58.895 33.2568 62.2513 31.8915 64.9819C30.5452 67.7124 28.5731 69.7318 25.9753 71.0402V71.2678L33.7403 74.0552C34.1954 74.2258 34.4229 74.4913 34.4229 74.8516C34.4229 75.1929 34.2902 75.7902 34.0247 76.6435C33.7592 77.5158 33.4179 78.2932 33.0008 78.9758C32.5836 79.6585 32.138 79.9998 31.6639 79.9998ZM17.7268 66.6031C20.4384 66.6031 22.4863 65.6076 23.8705 63.6166C25.2548 61.6256 25.9469 58.7244 25.9469 54.913C25.9469 51.1775 25.2548 48.3427 23.8705 46.4085C22.4863 44.4744 20.4384 43.5074 17.7268 43.5074C15.0342 43.5074 12.9863 44.4839 11.5831 46.437C10.1989 48.3711 9.50681 51.1965 9.50681 54.913C9.50681 58.7244 10.1989 61.6256 11.5831 63.6166C12.9863 65.6076 15.0342 66.6031 17.7268 66.6031Z"/>
<path d="M39.3151 72.7184C37.2483 72.7184 36.2148 72.3486 36.2148 71.6091C36.2148 71.4005 36.2812 71.0971 36.4139 70.6989L47.5636 38.1885C47.8291 37.468 48.7867 37.1077 50.4363 37.1077H53.0531C54.7028 37.1077 55.6604 37.468 55.9259 38.1885L67.0755 70.6989C67.1703 71.0781 67.2177 71.3815 67.2177 71.6091C67.2177 71.9883 67.0092 72.2728 66.592 72.4624C66.1938 72.633 65.5586 72.7184 64.6863 72.7184H62.4678C61.6714 72.7184 61.0266 72.6425 60.5336 72.4908C60.0596 72.3202 59.7657 72.0452 59.6519 71.666L57.604 65.4938H45.6864L43.6385 71.666C43.4299 72.3676 42.6524 72.7184 41.3061 72.7184H39.3151ZM55.4423 58.8097L52.5696 49.8217C52.3989 49.3666 52.2472 48.8452 52.1145 48.2573C52.0007 47.6695 51.8964 47.1101 51.8016 46.5792H51.6025L51.4887 47.205C51.2991 48.3237 51.0811 49.196 50.8346 49.8217L47.848 58.8097H55.4423Z"/>
<path d="M78.1683 72.7184C76.1394 72.7184 75.1249 72.1874 75.1249 71.1256V43.8487H67.104C66.573 43.8487 66.1843 43.6496 65.9378 43.2514C65.7103 42.8532 65.5965 42.2085 65.5965 41.3172V39.7813C65.5965 38.8901 65.7103 38.2454 65.9378 37.8472C66.1843 37.449 66.573 37.2499 67.104 37.2499H91.0246C91.5555 37.2499 91.9348 37.449 92.1623 37.8472C92.4088 38.2454 92.5321 38.8901 92.5321 39.7813V41.3172C92.5321 42.2085 92.4088 42.8532 92.1623 43.2514C91.9348 43.6496 91.5555 43.8487 91.0246 43.8487H82.9752V71.1256C82.9752 72.1874 81.9607 72.7184 79.9318 72.7184H78.1683Z"/>
<path d="M93.9827 72.7184C91.9158 72.7184 90.8824 72.3486 90.8824 71.6091C90.8824 71.4005 90.9487 71.0971 91.0815 70.6989L102.231 38.1885C102.497 37.468 103.454 37.1077 105.104 37.1077H107.721C109.37 37.1077 110.328 37.468 110.593 38.1885L121.743 70.6989C121.838 71.0781 121.885 71.3815 121.885 71.6091C121.885 71.9883 121.677 72.2728 121.26 72.4624C120.861 72.633 120.226 72.7184 119.354 72.7184H117.135C116.339 72.7184 115.694 72.6425 115.201 72.4908C114.727 72.3202 114.433 72.0452 114.319 71.666L112.272 65.4938H100.354L98.306 71.666C98.0974 72.3676 97.32 72.7184 95.9737 72.7184H93.9827ZM110.11 58.8097L107.237 49.8217C107.066 49.3666 106.915 48.8452 106.782 48.2573C106.668 47.6695 106.564 47.1101 106.469 46.5792H106.27L106.156 47.205C105.967 48.3237 105.749 49.196 105.502 49.8217L102.516 58.8097H110.11Z"/>
<path d="M128.427 72.7184C126.398 72.7184 125.384 72.1874 125.384 71.1256V39.2409C125.384 38.5393 125.545 38.0368 125.867 37.7334C126.19 37.4111 126.702 37.2499 127.403 37.2499H137.273C145.654 37.2499 149.845 40.4071 149.845 46.7214C149.845 48.6366 149.304 50.2863 148.224 51.6705C147.162 53.0547 145.73 54.0882 143.929 54.7708V54.9699C144.554 55.2354 145.209 55.8042 145.891 56.6765C146.593 57.5487 147.152 58.5348 147.569 59.6346L152.035 70.7558C152.187 71.2109 152.262 71.5332 152.262 71.7229C152.262 72.3865 151.257 72.7184 149.247 72.7184H147.171C145.484 72.7184 144.507 72.3676 144.242 71.666L140.231 61.7962C139.852 61.0378 139.482 60.4499 139.122 60.0328C138.78 59.6156 138.297 59.3027 137.671 59.0941C137.045 58.8666 136.202 58.7528 135.14 58.7528H133.177V71.1256C133.177 72.1874 132.163 72.7184 130.134 72.7184H128.427ZM137.956 52.0403C138.638 52.0403 139.283 51.8507 139.89 51.4714C140.497 51.0732 140.98 50.5423 141.34 49.8786C141.701 49.2149 141.881 48.4849 141.881 47.6885C141.881 46.5128 141.492 45.5837 140.715 44.9011C139.956 44.1995 138.923 43.8487 137.614 43.8487H133.177V52.0403H137.956Z"/>
<path d="M168.048 72.633C167.688 72.633 167.356 72.1021 167.053 71.0402C166.768 69.9784 166.626 69.0208 166.626 68.1675C166.626 67.8451 166.674 67.5891 166.768 67.3995L179.568 51.7558C180.857 50.1441 181.502 48.5228 181.502 46.8921C181.502 45.5837 181.066 44.5787 180.194 43.8771C179.321 43.1566 178.184 42.7963 176.78 42.7963C175.851 42.7963 175.026 42.9385 174.306 43.2229C173.604 43.5074 172.884 43.8866 172.144 44.3606C171.898 44.5313 171.661 44.6735 171.433 44.7873C171.206 44.9011 171.016 44.958 170.864 44.958C170.371 44.958 169.897 44.7683 169.442 44.3891C169.006 44.0099 168.655 43.5453 168.39 42.9954C168.124 42.4455 167.991 41.943 167.991 41.4879C167.991 40.5398 168.484 39.715 169.47 39.0134C170.457 38.2928 171.717 37.7524 173.253 37.3921C174.808 37.0129 176.411 36.8232 178.06 36.8232C180.374 36.8232 182.355 37.2499 184.005 38.1032C185.674 38.9375 186.935 40.1037 187.788 41.6017C188.641 43.0807 189.068 44.7873 189.068 46.7214C189.068 48.2763 188.793 49.7459 188.243 51.1301C187.712 52.5143 186.963 53.7943 185.996 54.9699L176.496 66.7169H188.158C188.689 66.7169 189.077 66.9255 189.324 67.3426C189.57 67.7408 189.693 68.3761 189.693 69.2483V70.1016C189.693 70.9739 189.57 71.6186 189.324 72.0357C189.077 72.4339 188.689 72.633 188.158 72.633H168.048Z"/>
<path d="M205.536 73.0597C203.052 73.0597 200.91 72.3391 199.108 70.898C197.307 69.4569 195.923 67.3806 194.955 64.669C194.007 61.9384 193.533 58.6865 193.533 54.913C193.533 51.1585 194.007 47.9255 194.955 45.2139C195.923 42.5024 197.307 40.426 199.108 38.9849C200.91 37.5438 203.052 36.8232 205.536 36.8232C208.02 36.8232 210.154 37.5438 211.936 38.9849C213.737 40.426 215.112 42.5024 216.06 45.2139C217.027 47.9255 217.511 51.1585 217.511 54.913C217.511 58.6865 217.027 61.9384 216.06 64.669C215.112 67.3806 213.737 69.4569 211.936 70.898C210.154 72.3391 208.02 73.0597 205.536 73.0597ZM205.536 67.1151C206.958 67.1151 208.049 66.0817 208.807 64.0148C209.566 61.9479 209.945 58.914 209.945 54.913C209.945 50.931 209.566 47.9065 208.807 45.8397C208.049 43.7728 206.958 42.7394 205.536 42.7394C204.114 42.7394 203.024 43.7728 202.265 45.8397C201.507 47.9065 201.128 50.931 201.128 54.913C201.128 58.914 201.507 61.9479 202.265 64.0148C203.024 66.0817 204.114 67.1151 205.536 67.1151Z"/>
<path d="M222.204 72.633C221.844 72.633 221.512 72.1021 221.208 71.0402C220.924 69.9784 220.782 69.0208 220.782 68.1675C220.782 67.8451 220.829 67.5891 220.924 67.3995L233.723 51.7558C235.013 50.1441 235.657 48.5228 235.657 46.8921C235.657 45.5837 235.221 44.5787 234.349 43.8771C233.477 43.1566 232.339 42.7963 230.936 42.7963C230.007 42.7963 229.182 42.9385 228.461 43.2229C227.76 43.5074 227.039 43.8866 226.3 44.3606C226.053 44.5313 225.816 44.6735 225.589 44.7873C225.361 44.9011 225.171 44.958 225.02 44.958C224.527 44.958 224.053 44.7683 223.598 44.3891C223.161 44.0099 222.811 43.5453 222.545 42.9954C222.28 42.4455 222.147 41.943 222.147 41.4879C222.147 40.5398 222.64 39.715 223.626 39.0134C224.612 38.2928 225.873 37.7524 227.409 37.3921C228.964 37.0129 230.566 36.8232 232.216 36.8232C234.529 36.8232 236.511 37.2499 238.16 38.1032C239.829 38.9375 241.09 40.1037 241.943 41.6017C242.797 43.0807 243.223 44.7873 243.223 46.7214C243.223 48.2763 242.948 49.7459 242.398 51.1301C241.868 52.5143 241.119 53.7943 240.151 54.9699L230.651 66.7169H242.313C242.844 66.7169 243.233 66.9255 243.479 67.3426C243.726 67.7408 243.849 68.3761 243.849 69.2483V70.1016C243.849 70.9739 243.726 71.6186 243.479 72.0357C243.233 72.4339 242.844 72.633 242.313 72.633H222.204Z"/>
<path d="M249.282 72.633C248.921 72.633 248.59 72.1021 248.286 71.0402C248.002 69.9784 247.86 69.0208 247.86 68.1675C247.86 67.8451 247.907 67.5891 248.002 67.3995L260.801 51.7558C262.091 50.1441 262.735 48.5228 262.735 46.8921C262.735 45.5837 262.299 44.5787 261.427 43.8771C260.555 43.1566 259.417 42.7963 258.014 42.7963C257.085 42.7963 256.26 42.9385 255.539 43.2229C254.838 43.5074 254.117 43.8866 253.377 44.3606C253.131 44.5313 252.894 44.6735 252.666 44.7873C252.439 44.9011 252.249 44.958 252.098 44.958C251.605 44.958 251.13 44.7683 250.675 44.3891C250.239 44.0099 249.888 43.5453 249.623 42.9954C249.358 42.4455 249.225 41.943 249.225 41.4879C249.225 40.5398 249.718 39.715 250.704 39.0134C251.69 38.2928 252.951 37.7524 254.487 37.3921C256.042 37.0129 257.644 36.8232 259.294 36.8232C261.607 36.8232 263.589 37.2499 265.238 38.1032C266.907 38.9375 268.168 40.1037 269.021 41.6017C269.874 43.0807 270.301 44.7873 270.301 46.7214C270.301 48.2763 270.026 49.7459 269.476 51.1301C268.945 52.5143 268.196 53.7943 267.229 54.9699L257.729 66.7169H269.391C269.922 66.7169 270.311 66.9255 270.557 67.3426C270.804 67.7408 270.927 68.3761 270.927 69.2483V70.1016C270.927 70.9739 270.804 71.6186 270.557 72.0357C270.311 72.4339 269.922 72.633 269.391 72.633H249.282Z"/>
</mask>
<path d="M31.6639 79.9998C31.4933 79.9998 30.9339 79.8196 29.9858 79.4594C29.0377 79.0991 27.3216 78.4165 24.8376 77.4115L10.7299 71.8082C7.73386 70.6325 5.44893 68.6131 3.87509 65.7498C2.30124 62.8866 1.51431 59.2743 1.51431 54.913C1.51431 51.0448 2.14006 47.7643 3.39155 45.0717C4.66201 42.3602 6.50133 40.3123 8.9095 38.928C11.3366 37.5248 14.2758 36.8232 17.7268 36.8232C21.1969 36.8232 24.136 37.5248 26.5442 38.928C28.9713 40.3123 30.8106 42.3602 32.0621 45.0717C33.3136 47.7643 33.9394 51.0448 33.9394 54.913C33.9394 58.895 33.2568 62.2513 31.8915 64.9819C30.5452 67.7124 28.5731 69.7318 25.9753 71.0402V71.2678L33.7403 74.0552C34.1954 74.2258 34.4229 74.4913 34.4229 74.8516C34.4229 75.1929 34.2902 75.7902 34.0247 76.6435C33.7592 77.5158 33.4179 78.2932 33.0008 78.9758C32.5836 79.6585 32.138 79.9998 31.6639 79.9998ZM17.7268 66.6031C20.4384 66.6031 22.4863 65.6076 23.8705 63.6166C25.2548 61.6256 25.9469 58.7244 25.9469 54.913C25.9469 51.1775 25.2548 48.3427 23.8705 46.4085C22.4863 44.4744 20.4384 43.5074 17.7268 43.5074C15.0342 43.5074 12.9863 44.4839 11.5831 46.437C10.1989 48.3711 9.50681 51.1965 9.50681 54.913C9.50681 58.7244 10.1989 61.6256 11.5831 63.6166C12.9863 65.6076 15.0342 66.6031 17.7268 66.6031Z" fill="white"/>
<path d="M39.3151 72.7184C37.2483 72.7184 36.2148 72.3486 36.2148 71.6091C36.2148 71.4005 36.2812 71.0971 36.4139 70.6989L47.5636 38.1885C47.8291 37.468 48.7867 37.1077 50.4363 37.1077H53.0531C54.7028 37.1077 55.6604 37.468 55.9259 38.1885L67.0755 70.6989C67.1703 71.0781 67.2177 71.3815 67.2177 71.6091C67.2177 71.9883 67.0092 72.2728 66.592 72.4624C66.1938 72.633 65.5586 72.7184 64.6863 72.7184H62.4678C61.6714 72.7184 61.0266 72.6425 60.5336 72.4908C60.0596 72.3202 59.7657 72.0452 59.6519 71.666L57.604 65.4938H45.6864L43.6385 71.666C43.4299 72.3676 42.6524 72.7184 41.3061 72.7184H39.3151ZM55.4423 58.8097L52.5696 49.8217C52.3989 49.3666 52.2472 48.8452 52.1145 48.2573C52.0007 47.6695 51.8964 47.1101 51.8016 46.5792H51.6025L51.4887 47.205C51.2991 48.3237 51.0811 49.196 50.8346 49.8217L47.848 58.8097H55.4423Z" fill="white"/>
<path d="M78.1683 72.7184C76.1394 72.7184 75.1249 72.1874 75.1249 71.1256V43.8487H67.104C66.573 43.8487 66.1843 43.6496 65.9378 43.2514C65.7103 42.8532 65.5965 42.2085 65.5965 41.3172V39.7813C65.5965 38.8901 65.7103 38.2454 65.9378 37.8472C66.1843 37.449 66.573 37.2499 67.104 37.2499H91.0246C91.5555 37.2499 91.9348 37.449 92.1623 37.8472C92.4088 38.2454 92.5321 38.8901 92.5321 39.7813V41.3172C92.5321 42.2085 92.4088 42.8532 92.1623 43.2514C91.9348 43.6496 91.5555 43.8487 91.0246 43.8487H82.9752V71.1256C82.9752 72.1874 81.9607 72.7184 79.9318 72.7184H78.1683Z" fill="white"/>
<path d="M93.9827 72.7184C91.9158 72.7184 90.8824 72.3486 90.8824 71.6091C90.8824 71.4005 90.9487 71.0971 91.0815 70.6989L102.231 38.1885C102.497 37.468 103.454 37.1077 105.104 37.1077H107.721C109.37 37.1077 110.328 37.468 110.593 38.1885L121.743 70.6989C121.838 71.0781 121.885 71.3815 121.885 71.6091C121.885 71.9883 121.677 72.2728 121.26 72.4624C120.861 72.633 120.226 72.7184 119.354 72.7184H117.135C116.339 72.7184 115.694 72.6425 115.201 72.4908C114.727 72.3202 114.433 72.0452 114.319 71.666L112.272 65.4938H100.354L98.306 71.666C98.0974 72.3676 97.32 72.7184 95.9737 72.7184H93.9827ZM110.11 58.8097L107.237 49.8217C107.066 49.3666 106.915 48.8452 106.782 48.2573C106.668 47.6695 106.564 47.1101 106.469 46.5792H106.27L106.156 47.205C105.967 48.3237 105.749 49.196 105.502 49.8217L102.516 58.8097H110.11Z" fill="white"/>
<path d="M128.427 72.7184C126.398 72.7184 125.384 72.1874 125.384 71.1256V39.2409C125.384 38.5393 125.545 38.0368 125.867 37.7334C126.19 37.4111 126.702 37.2499 127.403 37.2499H137.273C145.654 37.2499 149.845 40.4071 149.845 46.7214C149.845 48.6366 149.304 50.2863 148.224 51.6705C147.162 53.0547 145.73 54.0882 143.929 54.7708V54.9699C144.554 55.2354 145.209 55.8042 145.891 56.6765C146.593 57.5487 147.152 58.5348 147.569 59.6346L152.035 70.7558C152.187 71.2109 152.262 71.5332 152.262 71.7229C152.262 72.3865 151.257 72.7184 149.247 72.7184H147.171C145.484 72.7184 144.507 72.3676 144.242 71.666L140.231 61.7962C139.852 61.0378 139.482 60.4499 139.122 60.0328C138.78 59.6156 138.297 59.3027 137.671 59.0941C137.045 58.8666 136.202 58.7528 135.14 58.7528H133.177V71.1256C133.177 72.1874 132.163 72.7184 130.134 72.7184H128.427ZM137.956 52.0403C138.638 52.0403 139.283 51.8507 139.89 51.4714C140.497 51.0732 140.98 50.5423 141.34 49.8786C141.701 49.2149 141.881 48.4849 141.881 47.6885C141.881 46.5128 141.492 45.5837 140.715 44.9011C139.956 44.1995 138.923 43.8487 137.614 43.8487H133.177V52.0403H137.956Z" fill="white"/>
<path d="M168.048 72.633C167.688 72.633 167.356 72.1021 167.053 71.0402C166.768 69.9784 166.626 69.0208 166.626 68.1675C166.626 67.8451 166.674 67.5891 166.768 67.3995L179.568 51.7558C180.857 50.1441 181.502 48.5228 181.502 46.8921C181.502 45.5837 181.066 44.5787 180.194 43.8771C179.321 43.1566 178.184 42.7963 176.78 42.7963C175.851 42.7963 175.026 42.9385 174.306 43.2229C173.604 43.5074 172.884 43.8866 172.144 44.3606C171.898 44.5313 171.661 44.6735 171.433 44.7873C171.206 44.9011 171.016 44.958 170.864 44.958C170.371 44.958 169.897 44.7683 169.442 44.3891C169.006 44.0099 168.655 43.5453 168.39 42.9954C168.124 42.4455 167.991 41.943 167.991 41.4879C167.991 40.5398 168.484 39.715 169.47 39.0134C170.457 38.2928 171.717 37.7524 173.253 37.3921C174.808 37.0129 176.411 36.8232 178.06 36.8232C180.374 36.8232 182.355 37.2499 184.005 38.1032C185.674 38.9375 186.935 40.1037 187.788 41.6017C188.641 43.0807 189.068 44.7873 189.068 46.7214C189.068 48.2763 188.793 49.7459 188.243 51.1301C187.712 52.5143 186.963 53.7943 185.996 54.9699L176.496 66.7169H188.158C188.689 66.7169 189.077 66.9255 189.324 67.3426C189.57 67.7408 189.693 68.3761 189.693 69.2483V70.1016C189.693 70.9739 189.57 71.6186 189.324 72.0357C189.077 72.4339 188.689 72.633 188.158 72.633H168.048Z" fill="white"/>
<path d="M205.536 73.0597C203.052 73.0597 200.91 72.3391 199.108 70.898C197.307 69.4569 195.923 67.3806 194.955 64.669C194.007 61.9384 193.533 58.6865 193.533 54.913C193.533 51.1585 194.007 47.9255 194.955 45.2139C195.923 42.5024 197.307 40.426 199.108 38.9849C200.91 37.5438 203.052 36.8232 205.536 36.8232C208.02 36.8232 210.154 37.5438 211.936 38.9849C213.737 40.426 215.112 42.5024 216.06 45.2139C217.027 47.9255 217.511 51.1585 217.511 54.913C217.511 58.6865 217.027 61.9384 216.06 64.669C215.112 67.3806 213.737 69.4569 211.936 70.898C210.154 72.3391 208.02 73.0597 205.536 73.0597ZM205.536 67.1151C206.958 67.1151 208.049 66.0817 208.807 64.0148C209.566 61.9479 209.945 58.914 209.945 54.913C209.945 50.931 209.566 47.9065 208.807 45.8397C208.049 43.7728 206.958 42.7394 205.536 42.7394C204.114 42.7394 203.024 43.7728 202.265 45.8397C201.507 47.9065 201.128 50.931 201.128 54.913C201.128 58.914 201.507 61.9479 202.265 64.0148C203.024 66.0817 204.114 67.1151 205.536 67.1151Z" fill="white"/>
<path d="M222.204 72.633C221.844 72.633 221.512 72.1021 221.208 71.0402C220.924 69.9784 220.782 69.0208 220.782 68.1675C220.782 67.8451 220.829 67.5891 220.924 67.3995L233.723 51.7558C235.013 50.1441 235.657 48.5228 235.657 46.8921C235.657 45.5837 235.221 44.5787 234.349 43.8771C233.477 43.1566 232.339 42.7963 230.936 42.7963C230.007 42.7963 229.182 42.9385 228.461 43.2229C227.76 43.5074 227.039 43.8866 226.3 44.3606C226.053 44.5313 225.816 44.6735 225.589 44.7873C225.361 44.9011 225.171 44.958 225.02 44.958C224.527 44.958 224.053 44.7683 223.598 44.3891C223.161 44.0099 222.811 43.5453 222.545 42.9954C222.28 42.4455 222.147 41.943 222.147 41.4879C222.147 40.5398 222.64 39.715 223.626 39.0134C224.612 38.2928 225.873 37.7524 227.409 37.3921C228.964 37.0129 230.566 36.8232 232.216 36.8232C234.529 36.8232 236.511 37.2499 238.16 38.1032C239.829 38.9375 241.09 40.1037 241.943 41.6017C242.797 43.0807 243.223 44.7873 243.223 46.7214C243.223 48.2763 242.948 49.7459 242.398 51.1301C241.868 52.5143 241.119 53.7943 240.151 54.9699L230.651 66.7169H242.313C242.844 66.7169 243.233 66.9255 243.479 67.3426C243.726 67.7408 243.849 68.3761 243.849 69.2483V70.1016C243.849 70.9739 243.726 71.6186 243.479 72.0357C243.233 72.4339 242.844 72.633 242.313 72.633H222.204Z" fill="white"/>
<path d="M249.282 72.633C248.921 72.633 248.59 72.1021 248.286 71.0402C248.002 69.9784 247.86 69.0208 247.86 68.1675C247.86 67.8451 247.907 67.5891 248.002 67.3995L260.801 51.7558C262.091 50.1441 262.735 48.5228 262.735 46.8921C262.735 45.5837 262.299 44.5787 261.427 43.8771C260.555 43.1566 259.417 42.7963 258.014 42.7963C257.085 42.7963 256.26 42.9385 255.539 43.2229C254.838 43.5074 254.117 43.8866 253.377 44.3606C253.131 44.5313 252.894 44.6735 252.666 44.7873C252.439 44.9011 252.249 44.958 252.098 44.958C251.605 44.958 251.13 44.7683 250.675 44.3891C250.239 44.0099 249.888 43.5453 249.623 42.9954C249.358 42.4455 249.225 41.943 249.225 41.4879C249.225 40.5398 249.718 39.715 250.704 39.0134C251.69 38.2928 252.951 37.7524 254.487 37.3921C256.042 37.0129 257.644 36.8232 259.294 36.8232C261.607 36.8232 263.589 37.2499 265.238 38.1032C266.907 38.9375 268.168 40.1037 269.021 41.6017C269.874 43.0807 270.301 44.7873 270.301 46.7214C270.301 48.2763 270.026 49.7459 269.476 51.1301C268.945 52.5143 268.196 53.7943 267.229 54.9699L257.729 66.7169H269.391C269.922 66.7169 270.311 66.9255 270.557 67.3426C270.804 67.7408 270.927 68.3761 270.927 69.2483V70.1016C270.927 70.9739 270.804 71.6186 270.557 72.0357C270.311 72.4339 269.922 72.633 269.391 72.633H249.282Z" fill="white"/>
<path d="M31.6639 79.9998C31.4933 79.9998 30.9339 79.8196 29.9858 79.4594C29.0377 79.0991 27.3216 78.4165 24.8376 77.4115L10.7299 71.8082C7.73386 70.6325 5.44893 68.6131 3.87509 65.7498C2.30124 62.8866 1.51431 59.2743 1.51431 54.913C1.51431 51.0448 2.14006 47.7643 3.39155 45.0717C4.66201 42.3602 6.50133 40.3123 8.9095 38.928C11.3366 37.5248 14.2758 36.8232 17.7268 36.8232C21.1969 36.8232 24.136 37.5248 26.5442 38.928C28.9713 40.3123 30.8106 42.3602 32.0621 45.0717C33.3136 47.7643 33.9394 51.0448 33.9394 54.913C33.9394 58.895 33.2568 62.2513 31.8915 64.9819C30.5452 67.7124 28.5731 69.7318 25.9753 71.0402V71.2678L33.7403 74.0552C34.1954 74.2258 34.4229 74.4913 34.4229 74.8516C34.4229 75.1929 34.2902 75.7902 34.0247 76.6435C33.7592 77.5158 33.4179 78.2932 33.0008 78.9758C32.5836 79.6585 32.138 79.9998 31.6639 79.9998ZM17.7268 66.6031C20.4384 66.6031 22.4863 65.6076 23.8705 63.6166C25.2548 61.6256 25.9469 58.7244 25.9469 54.913C25.9469 51.1775 25.2548 48.3427 23.8705 46.4085C22.4863 44.4744 20.4384 43.5074 17.7268 43.5074C15.0342 43.5074 12.9863 44.4839 11.5831 46.437C10.1989 48.3711 9.50681 51.1965 9.50681 54.913C9.50681 58.7244 10.1989 61.6256 11.5831 63.6166C12.9863 65.6076 15.0342 66.6031 17.7268 66.6031Z" stroke="url(#paint0_linear_190_3625)" stroke-width="2" mask="url(#path-2-outside-1_190_3625)"/>
<path d="M39.3151 72.7184C37.2483 72.7184 36.2148 72.3486 36.2148 71.6091C36.2148 71.4005 36.2812 71.0971 36.4139 70.6989L47.5636 38.1885C47.8291 37.468 48.7867 37.1077 50.4363 37.1077H53.0531C54.7028 37.1077 55.6604 37.468 55.9259 38.1885L67.0755 70.6989C67.1703 71.0781 67.2177 71.3815 67.2177 71.6091C67.2177 71.9883 67.0092 72.2728 66.592 72.4624C66.1938 72.633 65.5586 72.7184 64.6863 72.7184H62.4678C61.6714 72.7184 61.0266 72.6425 60.5336 72.4908C60.0596 72.3202 59.7657 72.0452 59.6519 71.666L57.604 65.4938H45.6864L43.6385 71.666C43.4299 72.3676 42.6524 72.7184 41.3061 72.7184H39.3151ZM55.4423 58.8097L52.5696 49.8217C52.3989 49.3666 52.2472 48.8452 52.1145 48.2573C52.0007 47.6695 51.8964 47.1101 51.8016 46.5792H51.6025L51.4887 47.205C51.2991 48.3237 51.0811 49.196 50.8346 49.8217L47.848 58.8097H55.4423Z" stroke="url(#paint1_linear_190_3625)" stroke-width="2" mask="url(#path-2-outside-1_190_3625)"/>
<path d="M78.1683 72.7184C76.1394 72.7184 75.1249 72.1874 75.1249 71.1256V43.8487H67.104C66.573 43.8487 66.1843 43.6496 65.9378 43.2514C65.7103 42.8532 65.5965 42.2085 65.5965 41.3172V39.7813C65.5965 38.8901 65.7103 38.2454 65.9378 37.8472C66.1843 37.449 66.573 37.2499 67.104 37.2499H91.0246C91.5555 37.2499 91.9348 37.449 92.1623 37.8472C92.4088 38.2454 92.5321 38.8901 92.5321 39.7813V41.3172C92.5321 42.2085 92.4088 42.8532 92.1623 43.2514C91.9348 43.6496 91.5555 43.8487 91.0246 43.8487H82.9752V71.1256C82.9752 72.1874 81.9607 72.7184 79.9318 72.7184H78.1683Z" stroke="url(#paint2_linear_190_3625)" stroke-width="2" mask="url(#path-2-outside-1_190_3625)"/>
<path d="M93.9827 72.7184C91.9158 72.7184 90.8824 72.3486 90.8824 71.6091C90.8824 71.4005 90.9487 71.0971 91.0815 70.6989L102.231 38.1885C102.497 37.468 103.454 37.1077 105.104 37.1077H107.721C109.37 37.1077 110.328 37.468 110.593 38.1885L121.743 70.6989C121.838 71.0781 121.885 71.3815 121.885 71.6091C121.885 71.9883 121.677 72.2728 121.26 72.4624C120.861 72.633 120.226 72.7184 119.354 72.7184H117.135C116.339 72.7184 115.694 72.6425 115.201 72.4908C114.727 72.3202 114.433 72.0452 114.319 71.666L112.272 65.4938H100.354L98.306 71.666C98.0974 72.3676 97.32 72.7184 95.9737 72.7184H93.9827ZM110.11 58.8097L107.237 49.8217C107.066 49.3666 106.915 48.8452 106.782 48.2573C106.668 47.6695 106.564 47.1101 106.469 46.5792H106.27L106.156 47.205C105.967 48.3237 105.749 49.196 105.502 49.8217L102.516 58.8097H110.11Z" stroke="url(#paint3_linear_190_3625)" stroke-width="2" mask="url(#path-2-outside-1_190_3625)"/>
<path d="M128.427 72.7184C126.398 72.7184 125.384 72.1874 125.384 71.1256V39.2409C125.384 38.5393 125.545 38.0368 125.867 37.7334C126.19 37.4111 126.702 37.2499 127.403 37.2499H137.273C145.654 37.2499 149.845 40.4071 149.845 46.7214C149.845 48.6366 149.304 50.2863 148.224 51.6705C147.162 53.0547 145.73 54.0882 143.929 54.7708V54.9699C144.554 55.2354 145.209 55.8042 145.891 56.6765C146.593 57.5487 147.152 58.5348 147.569 59.6346L152.035 70.7558C152.187 71.2109 152.262 71.5332 152.262 71.7229C152.262 72.3865 151.257 72.7184 149.247 72.7184H147.171C145.484 72.7184 144.507 72.3676 144.242 71.666L140.231 61.7962C139.852 61.0378 139.482 60.4499 139.122 60.0328C138.78 59.6156 138.297 59.3027 137.671 59.0941C137.045 58.8666 136.202 58.7528 135.14 58.7528H133.177V71.1256C133.177 72.1874 132.163 72.7184 130.134 72.7184H128.427ZM137.956 52.0403C138.638 52.0403 139.283 51.8507 139.89 51.4714C140.497 51.0732 140.98 50.5423 141.34 49.8786C141.701 49.2149 141.881 48.4849 141.881 47.6885C141.881 46.5128 141.492 45.5837 140.715 44.9011C139.956 44.1995 138.923 43.8487 137.614 43.8487H133.177V52.0403H137.956Z" stroke="url(#paint4_linear_190_3625)" stroke-width="2" mask="url(#path-2-outside-1_190_3625)"/>
<path d="M168.048 72.633C167.688 72.633 167.356 72.1021 167.053 71.0402C166.768 69.9784 166.626 69.0208 166.626 68.1675C166.626 67.8451 166.674 67.5891 166.768 67.3995L179.568 51.7558C180.857 50.1441 181.502 48.5228 181.502 46.8921C181.502 45.5837 181.066 44.5787 180.194 43.8771C179.321 43.1566 178.184 42.7963 176.78 42.7963C175.851 42.7963 175.026 42.9385 174.306 43.2229C173.604 43.5074 172.884 43.8866 172.144 44.3606C171.898 44.5313 171.661 44.6735 171.433 44.7873C171.206 44.9011 171.016 44.958 170.864 44.958C170.371 44.958 169.897 44.7683 169.442 44.3891C169.006 44.0099 168.655 43.5453 168.39 42.9954C168.124 42.4455 167.991 41.943 167.991 41.4879C167.991 40.5398 168.484 39.715 169.47 39.0134C170.457 38.2928 171.717 37.7524 173.253 37.3921C174.808 37.0129 176.411 36.8232 178.06 36.8232C180.374 36.8232 182.355 37.2499 184.005 38.1032C185.674 38.9375 186.935 40.1037 187.788 41.6017C188.641 43.0807 189.068 44.7873 189.068 46.7214C189.068 48.2763 188.793 49.7459 188.243 51.1301C187.712 52.5143 186.963 53.7943 185.996 54.9699L176.496 66.7169H188.158C188.689 66.7169 189.077 66.9255 189.324 67.3426C189.57 67.7408 189.693 68.3761 189.693 69.2483V70.1016C189.693 70.9739 189.57 71.6186 189.324 72.0357C189.077 72.4339 188.689 72.633 188.158 72.633H168.048Z" stroke="url(#paint5_linear_190_3625)" stroke-width="2" mask="url(#path-2-outside-1_190_3625)"/>
<path d="M205.536 73.0597C203.052 73.0597 200.91 72.3391 199.108 70.898C197.307 69.4569 195.923 67.3806 194.955 64.669C194.007 61.9384 193.533 58.6865 193.533 54.913C193.533 51.1585 194.007 47.9255 194.955 45.2139C195.923 42.5024 197.307 40.426 199.108 38.9849C200.91 37.5438 203.052 36.8232 205.536 36.8232C208.02 36.8232 210.154 37.5438 211.936 38.9849C213.737 40.426 215.112 42.5024 216.06 45.2139C217.027 47.9255 217.511 51.1585 217.511 54.913C217.511 58.6865 217.027 61.9384 216.06 64.669C215.112 67.3806 213.737 69.4569 211.936 70.898C210.154 72.3391 208.02 73.0597 205.536 73.0597ZM205.536 67.1151C206.958 67.1151 208.049 66.0817 208.807 64.0148C209.566 61.9479 209.945 58.914 209.945 54.913C209.945 50.931 209.566 47.9065 208.807 45.8397C208.049 43.7728 206.958 42.7394 205.536 42.7394C204.114 42.7394 203.024 43.7728 202.265 45.8397C201.507 47.9065 201.128 50.931 201.128 54.913C201.128 58.914 201.507 61.9479 202.265 64.0148C203.024 66.0817 204.114 67.1151 205.536 67.1151Z" stroke="url(#paint6_linear_190_3625)" stroke-width="2" mask="url(#path-2-outside-1_190_3625)"/>
<path d="M222.204 72.633C221.844 72.633 221.512 72.1021 221.208 71.0402C220.924 69.9784 220.782 69.0208 220.782 68.1675C220.782 67.8451 220.829 67.5891 220.924 67.3995L233.723 51.7558C235.013 50.1441 235.657 48.5228 235.657 46.8921C235.657 45.5837 235.221 44.5787 234.349 43.8771C233.477 43.1566 232.339 42.7963 230.936 42.7963C230.007 42.7963 229.182 42.9385 228.461 43.2229C227.76 43.5074 227.039 43.8866 226.3 44.3606C226.053 44.5313 225.816 44.6735 225.589 44.7873C225.361 44.9011 225.171 44.958 225.02 44.958C224.527 44.958 224.053 44.7683 223.598 44.3891C223.161 44.0099 222.811 43.5453 222.545 42.9954C222.28 42.4455 222.147 41.943 222.147 41.4879C222.147 40.5398 222.64 39.715 223.626 39.0134C224.612 38.2928 225.873 37.7524 227.409 37.3921C228.964 37.0129 230.566 36.8232 232.216 36.8232C234.529 36.8232 236.511 37.2499 238.16 38.1032C239.829 38.9375 241.09 40.1037 241.943 41.6017C242.797 43.0807 243.223 44.7873 243.223 46.7214C243.223 48.2763 242.948 49.7459 242.398 51.1301C241.868 52.5143 241.119 53.7943 240.151 54.9699L230.651 66.7169H242.313C242.844 66.7169 243.233 66.9255 243.479 67.3426C243.726 67.7408 243.849 68.3761 243.849 69.2483V70.1016C243.849 70.9739 243.726 71.6186 243.479 72.0357C243.233 72.4339 242.844 72.633 242.313 72.633H222.204Z" stroke="url(#paint7_linear_190_3625)" stroke-width="2" mask="url(#path-2-outside-1_190_3625)"/>
<path d="M249.282 72.633C248.921 72.633 248.59 72.1021 248.286 71.0402C248.002 69.9784 247.86 69.0208 247.86 68.1675C247.86 67.8451 247.907 67.5891 248.002 67.3995L260.801 51.7558C262.091 50.1441 262.735 48.5228 262.735 46.8921C262.735 45.5837 262.299 44.5787 261.427 43.8771C260.555 43.1566 259.417 42.7963 258.014 42.7963C257.085 42.7963 256.26 42.9385 255.539 43.2229C254.838 43.5074 254.117 43.8866 253.377 44.3606C253.131 44.5313 252.894 44.6735 252.666 44.7873C252.439 44.9011 252.249 44.958 252.098 44.958C251.605 44.958 251.13 44.7683 250.675 44.3891C250.239 44.0099 249.888 43.5453 249.623 42.9954C249.358 42.4455 249.225 41.943 249.225 41.4879C249.225 40.5398 249.718 39.715 250.704 39.0134C251.69 38.2928 252.951 37.7524 254.487 37.3921C256.042 37.0129 257.644 36.8232 259.294 36.8232C261.607 36.8232 263.589 37.2499 265.238 38.1032C266.907 38.9375 268.168 40.1037 269.021 41.6017C269.874 43.0807 270.301 44.7873 270.301 46.7214C270.301 48.2763 270.026 49.7459 269.476 51.1301C268.945 52.5143 268.196 53.7943 267.229 54.9699L257.729 66.7169H269.391C269.922 66.7169 270.311 66.9255 270.557 67.3426C270.804 67.7408 270.927 68.3761 270.927 69.2483V70.1016C270.927 70.9739 270.804 71.6186 270.557 72.0357C270.311 72.4339 269.922 72.633 269.391 72.633H249.282Z" stroke="url(#paint8_linear_190_3625)" stroke-width="2" mask="url(#path-2-outside-1_190_3625)"/>
<defs>
<linearGradient id="paint0_linear_190_3625" x1="-147.795" y1="123.842" x2="-138.823" y2="-52.7352" gradientUnits="userSpaceOnUse">
<stop stop-color="#791426"/>
<stop offset="0.534653" stop-color="#AF1C3B"/>
<stop offset="1" stop-color="#791426"/>
</linearGradient>
<linearGradient id="paint1_linear_190_3625" x1="-147.795" y1="123.842" x2="-138.823" y2="-52.7352" gradientUnits="userSpaceOnUse">
<stop stop-color="#791426"/>
<stop offset="0.534653" stop-color="#AF1C3B"/>
<stop offset="1" stop-color="#791426"/>
</linearGradient>
<linearGradient id="paint2_linear_190_3625" x1="-147.795" y1="123.842" x2="-138.823" y2="-52.7352" gradientUnits="userSpaceOnUse">
<stop stop-color="#791426"/>
<stop offset="0.534653" stop-color="#AF1C3B"/>
<stop offset="1" stop-color="#791426"/>
</linearGradient>
<linearGradient id="paint3_linear_190_3625" x1="-147.795" y1="123.842" x2="-138.823" y2="-52.7352" gradientUnits="userSpaceOnUse">
<stop stop-color="#791426"/>
<stop offset="0.534653" stop-color="#AF1C3B"/>
<stop offset="1" stop-color="#791426"/>
</linearGradient>
<linearGradient id="paint4_linear_190_3625" x1="-147.795" y1="123.842" x2="-138.823" y2="-52.7352" gradientUnits="userSpaceOnUse">
<stop stop-color="#791426"/>
<stop offset="0.534653" stop-color="#AF1C3B"/>
<stop offset="1" stop-color="#791426"/>
</linearGradient>
<linearGradient id="paint5_linear_190_3625" x1="-147.795" y1="123.842" x2="-138.823" y2="-52.7352" gradientUnits="userSpaceOnUse">
<stop stop-color="#791426"/>
<stop offset="0.534653" stop-color="#AF1C3B"/>
<stop offset="1" stop-color="#791426"/>
</linearGradient>
<linearGradient id="paint6_linear_190_3625" x1="-147.795" y1="123.842" x2="-138.823" y2="-52.7352" gradientUnits="userSpaceOnUse">
<stop stop-color="#791426"/>
<stop offset="0.534653" stop-color="#AF1C3B"/>
<stop offset="1" stop-color="#791426"/>
</linearGradient>
<linearGradient id="paint7_linear_190_3625" x1="-147.795" y1="123.842" x2="-138.823" y2="-52.7352" gradientUnits="userSpaceOnUse">
<stop stop-color="#791426"/>
<stop offset="0.534653" stop-color="#AF1C3B"/>
<stop offset="1" stop-color="#791426"/>
</linearGradient>
<linearGradient id="paint8_linear_190_3625" x1="-147.795" y1="123.842" x2="-138.823" y2="-52.7352" gradientUnits="userSpaceOnUse">
<stop stop-color="#791426"/>
<stop offset="0.534653" stop-color="#AF1C3B"/>
<stop offset="1" stop-color="#791426"/>
</linearGradient>
</defs>
</svg>
