<svg width="169" height="80" viewBox="0 0 169 80" fill="none" xmlns="http://www.w3.org/2000/svg">
<g opacity="0.5">
<path opacity="0.5" d="M31.632 43.4591C35.0245 40.4302 36.9047 37.5607 37.2727 34.8505C37.5742 32.6302 37.0547 31.4306 35.7141 31.2518C34.941 31.1492 34.3426 31.4648 33.9189 32.1987C33.4953 32.9326 33.135 34.3654 32.8381 36.4971L20.4899 34.8645C21.164 30.7472 22.401 27.4524 24.2008 24.9802C26.0007 22.5079 28.1321 20.8022 30.5953 19.8631C33.094 18.9209 35.7884 18.6266 38.4301 19.0071C43.2543 19.6493 46.5996 21.4957 48.4659 24.5464C50.3322 27.597 50.9947 31.1219 50.4536 35.1211C49.8815 39.341 48.1365 43.1551 45.2188 46.5634C42.2789 49.9928 38.7421 52.8546 34.7817 55.0087L47.9347 56.7603L46.3112 68.6854L16.6235 64.7344L18.1311 53.6093C23.7393 49.8714 28.2396 46.488 31.632 43.4591Z" fill="#27863A"/>
<path opacity="0.5" d="M52.5432 45.5626C53.5313 38.2796 55.7331 32.6719 59.1487 28.7397C62.5643 24.8074 67.1837 23.2284 73.0068 24.0027C78.8253 24.7802 82.8586 27.5214 85.1069 32.2265C87.3551 36.9315 87.9875 42.9053 87.0041 50.148C86.0191 57.431 83.8158 63.0495 80.3939 67.0036C76.9721 70.9576 72.3497 72.5467 66.5266 71.7708C60.705 70.9934 56.6709 68.2529 54.4242 63.5494C52.1775 58.8459 51.5505 52.8503 52.5432 45.5626ZM74.4263 48.4734C74.853 45.3201 74.8762 42.8478 74.4958 41.0566C74.1155 39.2654 72.9867 38.2446 71.1096 37.9943C69.1969 37.7408 67.8177 38.4281 66.9719 40.056C66.1261 41.684 65.4906 44.0746 65.0654 47.2279C64.6371 50.3812 64.6123 52.869 64.9912 54.6913C65.37 56.5136 66.5157 57.5476 68.4284 57.7933C70.3056 58.0436 71.6678 57.3439 72.5151 55.6942C73.3625 54.0445 73.9995 51.6375 74.4263 48.4734Z" fill="#27863A"/>
</g>
<path d="M32.5086 41.0518C36.0356 37.7617 37.9684 34.8136 38.307 32.2077C38.5853 30.0713 38.0148 29.0031 36.5953 29.0031C36.21 28.9959 35.8303 29.0968 35.4989 29.2946C35.1674 29.4923 34.8974 29.7791 34.719 30.1226C34.2752 30.8705 33.9211 32.2699 33.6567 34.3207H20.5872C21.2258 30.3496 22.4713 27.0843 24.3236 24.525C26.176 21.9657 28.3956 20.0859 30.9825 18.8855C33.5717 17.6891 36.3899 17.0769 39.2394 17.0919C44.3419 17.0919 47.9083 18.4136 49.9385 21.0569C51.9687 23.7002 52.7318 26.9444 52.2277 30.7896C51.6989 34.8509 49.9254 38.6752 46.9071 42.2623C43.8011 45.9233 40.1299 49.0583 36.034 51.5472H49.9501L48.4588 63.0198H17.0386L18.4302 52.3169C24.2889 48.0907 28.9817 44.3357 32.5086 41.0518Z" fill="#27863A"/>
<path d="M54.6257 40.4031C55.5349 33.3968 57.7584 27.821 61.2962 23.6757C64.834 19.5304 69.6822 17.4578 75.8408 17.4578C82.001 17.4578 86.3096 19.5413 88.7665 23.7084C91.2235 27.8754 91.9966 33.4403 91.0859 40.4031C90.1736 47.4093 87.9486 52.996 84.4108 57.1631C80.873 61.3301 76.0233 63.4121 69.8615 63.409C63.7013 63.409 59.3928 61.327 56.9358 57.1631C54.4788 52.9991 53.7088 47.4124 54.6257 40.4031ZM77.7821 40.4031C78.1764 37.3695 78.1563 35.0302 77.7218 33.3851C77.2873 31.7401 76.0774 30.9175 74.092 30.9175C72.0649 30.9175 70.6207 31.7401 69.7595 33.3851C68.8982 35.0302 68.2705 37.3695 67.8762 40.4031C67.4819 43.4366 67.5004 45.786 67.9318 47.4513C68.3632 49.1166 69.5956 49.95 71.6289 49.9515C73.6142 49.9515 75.0391 49.1181 75.9034 47.4513C76.7678 45.7845 77.394 43.4351 77.7821 40.4031Z" fill="#27863A"/>
<path d="M32.5013 41.8395C36.0283 38.551 37.9611 35.6029 38.2997 32.9954C38.578 30.8606 38.0082 29.7924 36.5903 29.7908C36.2047 29.785 35.825 29.8868 35.4934 30.0848C35.1617 30.2828 34.8912 30.5694 34.7116 30.9127C34.2679 31.6621 33.9138 33.0615 33.6494 35.1108H20.5822C21.2146 31.1412 22.4585 27.8729 24.314 25.3058C26.1695 22.7387 28.3891 20.8588 30.9729 19.6662C33.5619 18.4691 36.3801 17.8561 39.2297 17.8704C44.3323 17.8704 47.8987 19.192 49.9289 21.8353C51.9591 24.4786 52.7222 27.7259 52.2181 31.5774C51.6924 35.6356 49.9188 39.4598 46.8975 43.05C43.7922 46.7129 40.1219 49.8502 36.0267 52.3419H49.9428L48.4538 63.8146H17.0312L18.4229 53.1116C24.2815 48.887 28.9743 45.1297 32.5013 41.8395Z" fill="#27863A"/>
<path d="M54.6185 41.2015C55.5307 34.1952 57.7542 28.6195 61.2889 24.4742C64.8236 20.3289 69.6718 18.2562 75.8335 18.2562C81.9937 18.2562 86.3023 20.339 88.7593 24.5045C91.2162 28.67 91.9894 34.2357 91.0786 41.2015C90.1725 48.2078 87.9506 53.7937 84.4128 57.9592C80.875 62.1247 76.0253 64.2074 69.8635 64.2074C63.7034 64.2074 59.3948 62.1247 56.9378 57.9592C54.4808 53.7937 53.7077 48.2078 54.6185 41.2015ZM77.7772 41.2015C78.1715 38.1679 78.1513 35.8286 77.7169 34.1836C77.2824 32.5385 76.0717 31.7183 74.0848 31.723C72.0607 31.723 70.6173 32.5455 69.7545 34.1906C68.8917 35.8356 68.2632 38.1749 67.8689 41.2085C67.4746 44.2436 67.4932 46.593 67.9246 48.2568C68.356 49.9205 69.5852 50.7539 71.6123 50.757C73.5977 50.757 75.0225 49.9236 75.8869 48.2568C76.7512 46.5899 77.3813 44.2382 77.7772 41.2015Z" fill="#27863A"/>
<path opacity="0.5" d="M53.3039 79.9999C71.524 79.9999 86.2943 65.147 86.2943 46.8251C86.2943 28.5031 71.524 13.6503 53.3039 13.6503C35.0838 13.6503 20.3135 28.5031 20.3135 46.8251C20.3135 65.147 35.0838 79.9999 53.3039 79.9999Z" fill="#195633"/>
<path opacity="0.5" d="M52.336 76.4076C69.2816 76.4076 83.0187 62.5938 83.0187 45.5535C83.0187 28.5132 69.2816 14.6993 52.336 14.6993C35.3904 14.6993 21.6533 28.5132 21.6533 45.5535C21.6533 62.5938 35.3904 76.4076 52.336 76.4076Z" fill="#237638"/>
<path opacity="0.5" d="M49.8481 74.9101C66.1596 74.9101 79.3826 61.6131 79.3826 45.2104C79.3826 28.8077 66.1596 15.5107 49.8481 15.5107C33.5366 15.5107 20.3135 28.8077 20.3135 45.2104C20.3135 61.6131 33.5366 74.9101 49.8481 74.9101Z" fill="#27863A"/>
<path d="M121.09 43.8632C121.807 45.039 122.075 46.4359 121.847 47.7955C121.537 50.0656 120.553 51.8164 118.894 53.0478C117.235 54.2793 115.009 54.8958 112.217 54.8973H98.7134L102.243 28.9854L103.334 27.3154C105.954 27.3154 119.986 29.5568 121.334 30.7043C122.682 31.8518 123.208 33.5217 122.909 35.7187C122.744 37.1393 122.149 38.4745 121.204 39.5437C120.299 40.5661 119.106 41.2869 117.783 41.6102C119.281 41.9771 120.384 42.7281 121.09 43.8632ZM108.949 39.0866H112.08C112.808 39.0866 113.368 38.9397 113.759 38.6458C113.964 38.4815 114.132 38.2766 114.255 38.0439C114.377 37.8112 114.451 37.5556 114.471 37.2931C114.556 36.6587 114.444 36.1922 114.135 35.8937C113.824 35.5905 113.307 35.4272 112.578 35.4272H109.447L108.949 39.0866ZM113.035 47.9494C113.425 47.6695 113.663 47.2116 113.75 46.5757C113.918 45.3318 113.287 44.7098 111.857 44.7098H108.181L107.682 48.3692H111.358C112.085 48.377 112.644 48.2409 113.035 47.961V47.9494Z" fill="black"/>
<path d="M134.344 35.4249L133.904 38.6458L142.17 43.0912L141.08 44.7588H133.071L132.572 48.4182L141.88 53.2297L140.79 54.8973H123.61L127.14 28.9854L128.233 27.3154L144.533 33.7573L143.443 35.4249H134.344Z" fill="black"/>
<path d="M167.826 33.7573L166.736 35.4249H159.891L158.331 53.2297L157.24 54.8973H149.16L151.813 35.4249H145.043L145.922 28.9854L147.012 27.3154L167.826 33.7573Z" fill="black"/>
<path d="M122.269 41.9476C122.985 43.1242 123.254 44.5219 123.025 45.8823C122.716 48.1524 121.731 49.9024 120.072 51.1323C118.413 52.3622 116.188 52.9787 113.397 52.9818H99.894L103.424 27.0698H116.563C119.184 27.0698 121.168 27.6428 122.515 28.7887C123.861 29.9347 124.386 31.6062 124.089 33.8032C123.924 35.2237 123.329 36.559 122.385 37.6282C121.476 38.6516 120.28 39.3731 118.954 39.697C120.457 40.0639 121.562 40.8141 122.269 41.9476ZM110.129 37.1711H113.26C113.989 37.1711 114.548 37.0249 114.94 36.7326C115.144 36.5678 115.313 36.3625 115.436 36.1294C115.558 35.8963 115.632 35.6404 115.652 35.3775C115.738 34.7431 115.626 34.2767 115.315 33.9781C115.005 33.6726 114.487 33.5117 113.759 33.5117H110.628L110.129 37.1711ZM114.216 46.0339C114.606 45.754 114.844 45.2968 114.93 44.6625C115.1 43.4186 114.47 42.7966 113.038 42.7966H109.359L108.861 46.4583H112.537C113.265 46.4646 113.824 46.3269 114.214 46.0455L114.216 46.0339Z" fill="#38597F"/>
<path d="M135.522 33.5117L135.084 36.7326H143.09L142.257 42.8432H134.251L133.752 46.5026H142.851L141.968 52.9818H124.788L128.318 27.0698H145.498L144.621 33.5117H135.522Z" fill="#38597F"/>
<path d="M168.79 27.0698L167.914 33.5117H161.071L158.418 52.9818H150.338L152.991 33.5117H146.221L147.1 27.0698H168.79Z" fill="#38597F"/>
<path d="M122.19 42.1933C122.904 43.3708 123.173 44.7676 122.946 46.1279C122.637 48.398 121.652 50.1488 119.991 51.3802C118.331 52.6117 116.106 53.2282 113.316 53.2298H99.8062L103.336 27.3154H116.475C119.104 27.3154 121.089 27.8892 122.429 29.0367C123.77 30.1842 124.294 31.8557 124.002 34.0512C123.836 35.4711 123.242 36.806 122.299 37.8761C121.391 38.8987 120.194 39.6194 118.869 39.9426C120.372 40.3095 121.479 41.0597 122.19 42.1933ZM110.048 37.419H113.177C113.905 37.419 114.465 37.2721 114.856 36.9782C115.061 36.8139 115.23 36.609 115.352 36.3763C115.475 36.1436 115.548 35.888 115.568 35.6255C115.657 34.9911 115.543 34.5199 115.234 34.2144C114.926 33.9089 114.404 33.7479 113.676 33.7479H110.54L110.048 37.419ZM114.133 46.2818C114.522 46.0019 114.761 45.544 114.849 44.9081C115.02 43.6642 114.388 43.0422 112.955 43.0422H109.274L108.775 46.7016H112.449C113.177 46.7094 113.736 46.5733 114.126 46.2935L114.133 46.2818Z" fill="url(#paint0_linear_27_4046)"/>
<path d="M135.434 33.7573L134.996 36.9782H143.002L142.17 43.0912H134.163L133.664 46.7506H142.763L141.88 53.2298H124.7L128.233 27.3154H145.412L144.533 33.7573H135.434Z" fill="url(#paint1_linear_27_4046)"/>
<path d="M168.705 27.3154L167.826 33.7573H160.984L158.33 53.2298H150.254L152.905 33.7573H146.135L147.007 27.3154H168.705Z" fill="url(#paint2_linear_27_4046)"/>
<path opacity="0.5" d="M71.5543 55.4884C70.2833 55.2924 69.003 55.1035 67.7784 54.8097C64.8486 59.6699 60.7369 63.7003 55.8304 66.5215C50.924 69.3426 45.3842 70.8615 39.7328 70.9353C21.3705 71.1685 6.24837 56.3233 6.0234 37.8584C5.79842 19.3935 20.5518 4.18682 38.9257 3.96758C43.9255 3.90788 48.8743 4.98312 53.4036 7.11324C57.9329 9.24336 61.926 12.3735 65.0856 16.2705C66.5561 16.0326 68.025 15.7924 69.4924 15.5498C66.0029 10.6775 61.3986 6.72115 56.0683 4.01513C50.738 1.30911 44.8383 -0.067136 38.8677 0.0026496C18.3368 0.259204 1.83697 17.2618 2.08978 37.9074C2.34259 58.553 19.253 75.1428 39.7815 74.8885C46.3567 74.8029 52.7922 72.9691 58.4345 69.5732C64.0768 66.1773 68.7249 61.3404 71.9068 55.5537C71.7885 55.5327 71.6726 55.5117 71.5543 55.4884Z" fill="#2DAB3F"/>
<path opacity="0.6" d="M2.93182 50.0102C3.91522 49.1752 4.89167 48.3379 5.92378 47.5939C4.20893 42.1784 3.89315 36.4131 5.00616 30.841C6.11918 25.2689 8.62436 20.0734 12.2857 15.7438C24.191 1.68466 45.2507 -0.0155969 59.234 11.9562C73.2174 23.9279 74.9058 45.1053 63.0006 59.1668C59.7552 62.9966 55.692 66.0404 51.1139 68.0713C46.5358 70.1022 41.5609 71.0677 36.5601 70.896C35.7715 72.1679 34.9844 73.4398 34.199 74.7117C40.1425 75.2702 46.1325 74.3822 51.6629 72.1227C57.1934 69.8632 62.1019 66.2987 65.974 61.73C79.3056 46.0103 77.427 22.3303 61.783 8.94515C46.139 -4.43999 22.6022 -2.53916 9.29147 13.1806C5.03129 18.2181 2.17305 24.2998 1.00717 30.8079C-0.15872 37.3159 0.409293 44.0183 2.65349 50.2341C2.74395 50.1594 2.84136 50.0871 2.93182 50.0102Z" fill="#30AB43"/>
<g opacity="0.5">
<path opacity="0.5" d="M33.2229 41.3481C36.5395 38.5229 38.3772 35.8469 38.7359 33.3203C39.0297 31.2492 38.5218 30.1305 37.2121 29.9641C36.8643 29.9087 36.508 29.9641 36.1932 30.1227C35.8783 30.2812 35.6207 30.5348 35.4564 30.848C35.0358 31.5322 34.684 32.8686 34.4011 34.8573L22.3266 33.3249C22.9868 29.486 24.1952 26.4135 25.9517 24.1076C27.7082 21.8018 29.7956 20.2111 32.2139 19.3357C34.6648 18.457 37.2896 18.1827 39.8678 18.5358C44.5853 19.1359 47.8572 20.858 49.6833 23.7018C51.5094 26.5457 52.1572 29.8327 51.6269 33.5628C51.0656 37.4998 49.3593 41.0573 46.5081 44.2355C43.6035 47.4549 40.1467 50.1228 36.3029 52.1117L49.1637 53.7443L47.5773 64.8648L18.5391 61.1797L20.0142 50.8056C25.5095 47.3258 29.9124 44.1733 33.2229 41.3481Z" fill="#004B68"/>
<path opacity="0.5" d="M53.6703 43.3092C54.6352 36.5175 56.7883 31.2885 60.1297 27.6221C63.4711 23.9557 67.9877 22.4832 73.6794 23.2047C79.3695 23.9277 83.3124 26.4839 85.508 30.8733C87.7037 35.2627 88.3222 40.833 87.3635 47.5843C86.3987 54.3775 84.244 59.6175 80.8995 63.3041C77.555 66.9907 73.0369 68.4733 67.3452 67.7518C61.6551 67.0288 57.7122 64.4726 55.5165 60.0832C53.3209 55.6937 52.7055 50.1024 53.6703 43.3092ZM75.0663 46.024C75.4838 43.0853 75.507 40.7802 75.1359 39.1087C74.7648 37.4372 73.6608 36.4848 71.8239 36.2516C69.9529 36.0137 68.6046 36.6543 67.7789 38.1734C66.9533 39.6925 66.3348 41.9222 65.9235 44.8625C65.506 47.8028 65.482 50.1187 65.8516 51.8105C66.2211 53.5022 67.3421 54.4669 69.2146 54.7048C71.0484 54.9381 72.3798 54.285 73.2085 52.7457C74.0373 51.2064 74.6566 48.9658 75.0663 46.024Z" fill="#004B68"/>
</g>
<path d="M34.0784 39.0973C37.5281 36.028 39.4184 33.2782 39.7493 30.8479C40.0198 28.8561 39.4617 27.8602 38.0747 27.8602C37.7033 27.8502 37.3363 27.9422 37.013 28.1263C36.6898 28.3104 36.4225 28.5797 36.2401 28.9051C35.8071 29.6017 35.4608 30.907 35.201 32.821H22.4214C23.0399 29.1142 24.2576 26.0659 26.0744 23.676C27.7603 21.3926 30.0035 19.5851 32.5871 18.4283C35.1326 17.31 37.8829 16.7403 40.6608 16.7561C45.652 16.7561 49.1387 17.9906 51.121 20.4598C53.1033 22.9289 53.8493 25.9609 53.3592 29.5558C52.8443 33.3326 51.111 36.8917 48.1592 40.2331C45.0974 43.6701 41.5108 46.5949 37.5343 48.8977H51.1442L49.6876 59.596H18.9517L20.3131 49.616C26.0404 45.6728 30.6288 42.1666 34.0784 39.0973Z" fill="white"/>
<path d="M55.7059 38.4972C56.5949 31.9668 58.769 26.7672 62.2279 22.8987C65.6868 19.0302 70.4276 17.0975 76.4501 17.1006C82.4804 17.1006 86.6932 19.0442 89.0883 22.9314C91.4834 26.8186 92.2426 32.008 91.3659 38.4996C90.4752 45.03 88.2989 50.2389 84.8369 54.1261C81.3749 58.0132 76.6334 59.9568 70.6123 59.9568C64.582 59.9568 60.3685 58.0132 57.9719 54.1261C55.5752 50.2389 54.8199 45.0293 55.7059 38.4972ZM78.3497 38.4972C78.7347 35.6705 78.7146 33.489 78.2894 31.9528C77.8642 30.4165 76.6813 29.65 74.7408 29.6531C72.7585 29.6531 71.346 30.4197 70.5033 31.9528C69.6606 33.4859 69.0468 35.6674 68.6617 38.4972C68.2767 41.3287 68.2953 43.5203 68.7174 45.072C69.1395 46.6238 70.341 47.4012 72.3217 47.4043C74.2638 47.4043 75.6554 46.6269 76.4965 45.072C77.3377 43.5171 77.9569 41.3255 78.3543 38.4972H78.3497Z" fill="white"/>
<path d="M34.0716 39.8384C37.5213 36.7707 39.4115 34.0217 39.7424 31.5914C40.013 29.5996 39.4556 28.6037 38.0702 28.6037C37.6985 28.594 37.3313 28.6862 37.0077 28.8702C36.6842 29.0543 36.4165 29.3233 36.2332 29.6486C35.8018 30.3452 35.4555 31.6505 35.1942 33.5645H22.4169C23.0354 29.8577 24.253 26.8094 26.0699 24.4195C27.7533 22.1318 29.9959 20.3202 32.5803 19.1602C35.1264 18.0445 37.8766 17.4772 40.6539 17.4949C45.6482 17.4949 49.135 18.7303 51.1142 21.2009C53.0934 23.6716 53.8402 26.7036 53.3547 30.297C52.8367 34.0846 51.1026 37.6507 48.1524 40.9953C45.0885 44.4336 41.4996 47.3592 37.5205 49.6621H51.1327L49.6739 60.3605H18.9448L20.3063 50.3805C26.0335 46.4202 30.622 42.9062 34.0716 39.8384Z" fill="url(#paint3_linear_27_4046)"/>
<path d="M55.6995 39.2416C56.5901 32.7111 58.7641 27.5116 62.2215 23.6431C65.6789 19.7746 70.4196 17.8419 76.4438 17.845C82.4741 17.845 86.6868 19.7886 89.0819 23.6758C91.477 27.5629 92.2362 32.7523 91.3595 39.2439C90.4689 45.7744 88.2933 50.9833 84.8328 54.8704C81.3724 58.7576 76.6301 60.7012 70.6059 60.7012C64.5756 60.7012 60.3629 58.7576 57.9678 54.8704C55.5727 50.9833 54.8166 45.7736 55.6995 39.2416ZM78.3433 39.2416C78.7283 36.4133 78.7082 34.2318 78.283 32.6971C77.8578 31.1625 76.6749 30.3959 74.7344 30.3975C72.7537 30.3975 71.342 31.164 70.4993 32.6971C69.6566 34.2302 69.0419 36.4117 68.6554 39.2416C68.2704 42.0699 68.2889 44.2615 68.711 45.8164C69.1332 47.3713 70.3346 48.1487 72.3153 48.1487C74.2574 48.1487 75.649 47.3713 76.4901 45.8164C77.3313 44.2615 77.9529 42.0699 78.3549 39.2416H78.3433Z" fill="url(#paint4_linear_27_4046)"/>
<defs>
<linearGradient id="paint0_linear_27_4046" x1="111.943" y1="27.3154" x2="111.943" y2="53.2298" gradientUnits="userSpaceOnUse">
<stop stop-color="white"/>
<stop offset="1" stop-color="#DBDBDB"/>
</linearGradient>
<linearGradient id="paint1_linear_27_4046" x1="135.056" y1="27.3154" x2="135.056" y2="53.2298" gradientUnits="userSpaceOnUse">
<stop stop-color="white"/>
<stop offset="1" stop-color="#DBDBDB"/>
</linearGradient>
<linearGradient id="paint2_linear_27_4046" x1="157.42" y1="27.3154" x2="157.42" y2="53.2298" gradientUnits="userSpaceOnUse">
<stop stop-color="white"/>
<stop offset="1" stop-color="#DBDBDB"/>
</linearGradient>
<linearGradient id="paint3_linear_27_4046" x1="29.9155" y1="63.4003" x2="46.0189" y2="19.0482" gradientUnits="userSpaceOnUse">
<stop stop-color="#DBDBDB"/>
<stop offset="1" stop-color="white"/>
</linearGradient>
<linearGradient id="paint4_linear_27_4046" x1="10378" y1="3301.04" x2="13972.4" y2="12943.2" gradientUnits="userSpaceOnUse">
<stop stop-color="#DBDBDB"/>
<stop offset="1" stop-color="white"/>
</linearGradient>
</defs>
</svg>
